<svg xmlns="http://www.w3.org/2000/svg" xmlns:v="https://svgstorm.com"
viewBox = "0 0 1600 1600"
width="1600"
height="1600">
<g fill="None" fill-opacity="0.0" stroke="#FDFEFD" stroke-opacity="1.00" stroke-width="0.3"><path d="
M 0.00 766.00 
C 10.97 567.14 91.83 377.11 235.25 234.25 C 378.66 91.38 567.90 8.68 768.00 0.00
L 0.00 0.00
L 0.00 766.00 Z"/>
</g>
<g fill="None" fill-opacity="0.0" stroke="#C6D9DF" stroke-opacity="1.00" stroke-width="0.3"><path d="
M 0.00 766.00 
L 0.00 823.00
C 2.12 859.96 5.73 903.33 11.99 939.01 C 18.25 974.68 27.97 1008.68 37.78 1042.22 C 47.59 1075.77 59.68 1103.69 72.26 1133.74 C 84.83 1163.80 102.32 1188.87 118.00 1217.00
C 119.11 1211.58 127.62 1206.76 129.92 1200.92 C 132.22 1195.08 137.82 1189.73 140.92 1183.92 C 144.02 1178.11 149.03 1172.22 152.30 1166.30 C 155.58 1160.38 159.49 1154.85 162.77 1148.77 C 166.05 1142.69 170.12 1136.56 173.30 1130.30 C 176.48 1124.04 179.51 1118.12 182.77 1111.77 C 186.03 1105.42 189.20 1098.56 191.93 1091.93 C 194.65 1085.29 198.20 1079.59 200.77 1072.77 C 203.34 1065.96 205.22 1058.90 207.98 1051.98 C 210.73 1045.05 213.03 1037.59 215.32 1030.32 C 217.62 1023.06 219.63 1016.28 221.78 1008.78 C 223.93 1001.28 225.85 993.49 227.78 985.78 C 229.71 978.06 230.31 969.98 232.00 962.00 C 233.69 954.01 234.84 945.60 236.33 937.33 C 237.82 929.06 238.37 920.73 239.00 912.00 C 239.63 903.27 240.82 894.03 241.00 885.00
C 241.05 882.59 241.84 879.70 242.00 878.00
C 242.17 869.34 242.00 860.66 242.00 852.00
C 242.00 848.34 241.93 844.66 242.00 841.00
C 242.05 838.59 242.84 835.70 243.00 834.00
C 243.00 793.41 246.62 744.41 252.00 706.00 C 257.38 667.59 267.88 630.51 279.93 595.93 C 291.98 561.34 306.77 533.79 324.30 503.30 C 341.83 472.81 361.20 451.69 384.00 425.00
C 387.96 420.37 392.42 415.91 397.00 412.00
C 424.60 388.42 445.10 368.81 476.70 350.70 C 508.29 332.59 538.43 317.88 574.68 306.68 C 610.93 295.48 656.02 287.66 696.00 286.00 C 735.98 284.34 786.39 288.77 823.67 297.33 C 860.96 305.89 896.24 317.41 928.70 334.31 C 961.15 351.20 984.59 369.63 1010.75 394.25 C 1036.91 418.87 1055.45 444.26 1074.00 473.00
C 1078.26 479.60 1085.46 486.22 1088.00 494.00
C 1094.96 499.71 1107.44 496.25 1116.00 499.00 C 1124.56 501.75 1135.05 501.82 1144.22 503.78 C 1153.39 505.74 1164.63 506.35 1174.00 508.00
C 1202.26 512.97 1233.06 518.04 1260.00 522.00
C 1303.08 528.33 1347.39 534.11 1381.75 563.25 C 1416.11 592.39 1432.03 629.37 1435.00 673.00
C 1435.20 675.87 1433.96 681.45 1435.00 684.00 C 1436.04 686.55 1433.46 694.56 1433.00 692.00
C 1430.55 692.37 1426.56 686.99 1423.77 686.23 C 1420.98 685.47 1416.76 682.21 1414.00 681.00
C 1408.17 681.64 1405.01 690.99 1399.25 693.25 C 1393.49 695.50 1388.67 701.82 1382.75 704.75 C 1376.83 707.69 1370.98 711.62 1364.77 714.77 C 1358.56 717.92 1352.10 720.49 1345.31 723.31 C 1338.51 726.12 1331.39 727.81 1323.99 729.99 C 1316.59 732.17 1308.81 733.70 1300.78 734.78 C 1292.75 735.85 1283.30 736.20 1275.00 737.00
C 1247.93 739.62 1218.10 740.68 1192.00 745.00
C 1182.19 746.63 1169.37 745.60 1159.99 747.99 C 1150.61 750.38 1137.54 746.16 1130.00 751.00
C 1124.29 754.66 1121.92 762.21 1116.75 766.75 C 1111.57 771.28 1108.03 778.16 1103.25 783.25 C 1098.46 788.33 1094.29 794.38 1089.70 799.70 C 1085.10 805.02 1081.00 810.98 1076.25 816.25 C 1071.50 821.51 1067.30 827.34 1062.75 832.75 C 1058.20 838.16 1053.71 843.80 1049.25 849.25 C 1044.79 854.69 1040.38 860.49 1035.75 865.75 C 1031.12 871.02 1027.53 877.98 1023.23 883.23 C 1018.93 888.48 1016.51 897.83 1012.70 902.69 C 1008.88 907.56 1009.48 922.96 1004.00 924.00
C 1008.30 928.34 1003.71 937.37 1004.00 944.00 C 1004.29 950.63 1001.56 960.08 1004.00 967.00
C 1002.68 968.39 1000.51 966.28 1000.00 969.00
C 1009.17 972.34 1009.07 987.59 1013.32 996.68 C 1017.57 1005.76 1022.29 1015.96 1026.77 1025.23 C 1031.26 1034.50 1036.07 1044.55 1040.00 1054.00
C 1040.14 1054.34 1040.76 1055.47 1041.00 1056.00
C 1055.84 1088.00 1071.16 1120.97 1078.00 1156.00
C 1076.67 1156.00 1075.33 1156.00 1074.00 1156.00
C 1075.06 1156.15 1077.26 1157.91 1079.00 1157.00
C 1092.63 1200.62 1105.41 1246.64 1108.00 1292.00
C 1110.94 1310.05 1115.65 1327.39 1117.00 1347.00 C 1118.35 1366.62 1120.20 1387.84 1121.00 1408.00 C 1121.80 1428.16 1123.62 1449.32 1123.00 1470.00 C 1122.38 1490.68 1122.26 1512.40 1121.00 1533.00
C 1158.43 1517.84 1195.53 1495.88 1229.75 1474.75 C 1263.96 1453.62 1294.93 1429.58 1325.08 1403.08 C 1355.23 1376.59 1382.80 1350.31 1408.30 1319.30 C 1433.81 1288.30 1457.66 1259.84 1479.31 1224.31 C 1500.95 1188.77 1519.85 1154.47 1536.78 1114.78 C 1553.71 1075.08 1566.59 1032.70 1577.93 988.93 C 1589.27 945.16 1596.03 889.22 1600.00 843.00
L 1600.00 767.00
C 1590.47 568.48 1510.05 381.55 1368.75 238.25 C 1227.46 94.95 1042.63 13.18 846.00 0.00
L 768.00 0.00
C 567.90 8.68 378.66 91.38 235.25 234.25 C 91.83 377.11 10.97 567.14 0.00 766.00 Z"/>
</g>
<g fill="None" fill-opacity="0.0" stroke="#FDFEFD" stroke-opacity="1.00" stroke-width="0.3"><path d="
M 1600.00 767.00 
L 1600.00 0.00
L 846.00 0.00
C 1042.63 13.18 1227.46 94.95 1368.75 238.25 C 1510.05 381.55 1590.47 568.48 1600.00 767.00 Z"/>
</g>
<g fill="None" fill-opacity="0.0" stroke="#0C2C31" stroke-opacity="1.00" stroke-width="0.3"><path d="
M 397.00 412.00 
C 392.75 416.25 388.21 420.79 384.00 425.00
C 361.20 451.69 341.83 472.81 324.30 503.30 C 306.77 533.79 291.98 561.34 279.93 595.93 C 267.88 630.51 257.38 667.59 252.00 706.00 C 246.62 744.41 243.00 793.41 243.00 834.00
C 243.00 836.33 243.00 838.67 243.00 841.00
C 243.00 844.75 242.29 848.99 242.00 852.00
C 242.00 860.66 242.17 869.34 242.00 878.00
C 241.95 880.41 241.16 883.30 241.00 885.00
C 240.82 894.03 239.63 903.27 239.00 912.00 C 238.37 920.73 237.82 929.06 236.33 937.33 C 234.84 945.60 233.69 954.01 232.00 962.00 C 230.31 969.98 229.71 978.06 227.78 985.78 C 225.85 993.49 223.93 1001.28 221.78 1008.78 C 219.63 1016.28 217.62 1023.06 215.32 1030.32 C 213.03 1037.59 210.73 1045.05 207.98 1051.98 C 205.22 1058.90 203.34 1065.96 200.77 1072.77 C 198.20 1079.59 194.65 1085.29 191.93 1091.93 C 189.20 1098.56 186.03 1105.42 182.77 1111.77 C 179.51 1118.12 176.48 1124.04 173.30 1130.30 C 170.12 1136.56 166.05 1142.69 162.77 1148.77 C 159.49 1154.85 155.58 1160.38 152.30 1166.30 C 149.03 1172.22 144.02 1178.11 140.92 1183.92 C 137.82 1189.73 132.22 1195.08 129.92 1200.92 C 127.62 1206.76 119.11 1211.58 118.00 1217.00
C 129.61 1237.84 142.90 1258.88 158.00 1278.00
C 168.52 1283.66 180.68 1270.32 185.75 1261.75 C 190.83 1253.19 198.90 1243.67 205.25 1235.25 C 211.60 1226.82 217.79 1216.90 224.30 1208.30 C 230.81 1199.70 237.41 1190.57 243.92 1181.92 C 250.43 1173.27 257.33 1164.23 264.00 1156.00
C 260.45 1149.87 258.72 1142.91 258.00 1136.00 C 257.28 1129.09 258.13 1121.50 261.31 1115.31 C 264.48 1109.11 267.32 1105.28 272.75 1100.75 C 278.18 1096.22 285.00 1094.06 292.02 1093.02 C 299.05 1091.99 308.74 1093.10 314.69 1096.31 C 320.65 1099.51 324.94 1102.38 328.92 1108.08 C 332.90 1113.78 335.45 1118.93 336.93 1126.07 C 338.41 1133.21 336.38 1143.07 333.23 1149.23 C 330.08 1155.39 326.69 1158.67 321.75 1163.75 C 316.82 1168.84 310.05 1169.25 303.93 1171.93 C 297.80 1174.61 285.65 1166.90 281.26 1171.26 C 276.86 1175.61 274.38 1182.51 270.08 1187.08 C 265.79 1191.66 263.12 1197.35 259.23 1202.23 C 255.34 1207.11 251.82 1212.08 248.08 1217.08 C 244.34 1222.09 240.78 1227.02 237.08 1232.08 C 233.38 1237.15 229.04 1242.40 225.70 1247.70 C 222.36 1252.99 217.83 1257.05 214.25 1262.25 C 210.66 1267.45 207.26 1272.33 203.70 1277.70 C 200.14 1283.07 195.68 1286.65 192.70 1292.70 C 189.71 1298.74 178.49 1299.16 177.00 1302.00
C 198.23 1325.88 219.32 1350.32 242.00 1373.00
C 247.75 1373.00 250.32 1361.23 254.75 1357.75 C 259.19 1354.28 262.89 1345.67 266.92 1340.92 C 270.95 1336.17 275.41 1329.55 279.25 1324.25 C 283.09 1318.95 288.01 1313.35 291.75 1307.75 C 295.50 1302.16 300.21 1296.59 303.92 1290.92 C 307.62 1285.24 312.55 1279.89 316.25 1274.25 C 319.95 1268.61 324.38 1263.78 328.25 1258.25 C 332.12 1252.72 336.64 1246.92 340.30 1241.30 C 343.96 1235.69 349.95 1230.69 352.77 1224.77 C 355.59 1218.85 363.74 1214.51 365.25 1208.25 C 366.76 1202.00 358.12 1194.63 359.01 1186.99 C 359.90 1179.35 360.44 1170.25 364.92 1163.92 C 369.40 1157.59 372.54 1152.95 379.23 1149.23 C 385.92 1145.51 394.13 1142.94 402.00 1144.00 C 409.87 1145.06 417.07 1146.77 423.23 1151.77 C 429.39 1156.77 432.48 1161.20 435.92 1168.08 C 439.37 1174.95 439.76 1185.42 438.07 1193.07 C 436.39 1200.73 433.53 1206.17 427.75 1211.75 C 421.97 1217.34 417.23 1220.83 409.33 1222.33 C 401.43 1223.83 392.69 1224.57 385.00 1221.00
C 343.47 1277.45 301.82 1334.03 260.00 1390.00
C 260.46 1390.50 260.60 1391.56 261.00 1392.00
C 277.62 1404.36 293.10 1418.94 309.00 1432.00
C 315.09 1425.72 319.35 1417.73 324.77 1410.77 C 330.19 1403.81 335.90 1397.09 340.75 1389.75 C 345.61 1382.41 351.39 1375.63 356.30 1368.30 C 361.22 1360.98 367.79 1354.90 372.25 1347.25 C 376.70 1339.60 367.85 1329.03 369.00 1319.00 C 370.15 1308.97 372.42 1299.17 380.25 1292.25 C 388.08 1285.33 394.78 1280.46 405.01 1280.01 C 415.23 1279.56 425.07 1282.94 432.75 1289.25 C 440.43 1295.56 444.38 1302.71 446.93 1312.07 C 449.47 1321.44 447.05 1333.66 442.08 1342.08 C 437.10 1350.49 429.45 1354.81 420.92 1358.92 C 412.40 1363.03 396.01 1354.84 390.70 1361.70 C 385.38 1368.55 380.07 1376.32 375.23 1383.23 C 370.39 1390.14 363.49 1397.49 359.25 1404.25 C 355.01 1411.00 346.89 1419.46 343.75 1425.75 C 340.61 1432.03 326.88 1442.04 330.00 1448.00
C 370.74 1477.69 414.35 1503.48 460.00 1524.00
C 480.13 1405.88 536.43 1294.70 626.00 1210.00
C 629.97 1206.02 633.74 1201.64 638.00 1198.00
C 663.93 1175.85 685.09 1158.11 714.23 1140.23 C 743.36 1122.35 769.99 1108.14 803.03 1095.03 C 836.06 1081.92 869.18 1071.91 906.07 1064.07 C 942.96 1056.24 991.91 1055.00 1032.00 1055.00
C 1033.88 1055.00 1039.15 1053.83 1040.00 1054.00
C 1036.07 1044.55 1031.26 1034.50 1026.77 1025.23 C 1022.29 1015.96 1017.57 1005.76 1013.32 996.68 C 1009.07 987.59 1009.17 972.34 1000.00 969.00
C 952.13 951.54 892.48 950.12 841.93 956.93 C 791.38 963.73 749.02 978.88 701.78 994.78 C 654.54 1010.67 592.78 1012.84 544.93 1002.07 C 497.07 991.31 463.92 972.55 427.00 941.00
C 422.71 937.34 418.62 933.24 415.00 929.00
C 388.81 898.35 373.82 871.57 362.01 832.99 C 350.20 794.41 349.15 738.93 355.78 698.78 C 362.41 658.63 373.53 619.34 391.78 584.78 C 410.02 550.21 426.63 524.59 453.25 496.25 C 479.87 467.91 503.46 449.20 535.75 428.75 C 568.03 408.29 600.33 394.16 638.22 382.22 C 676.12 370.29 728.08 363.45 770.00 364.00 C 811.92 364.55 858.64 373.42 895.07 388.93 C 931.51 404.43 955.71 423.71 982.77 451.23 C 1009.83 478.75 1026.47 506.79 1045.00 539.00
C 1045.12 539.10 1047.85 538.00 1048.00 540.00
C 1047.37 534.52 1047.44 530.18 1047.00 525.00
C 1053.77 526.89 1047.31 537.78 1051.00 542.00
C 1056.37 531.05 1058.51 517.04 1062.93 505.93 C 1067.35 494.81 1067.56 479.88 1074.00 473.00
C 1055.45 444.26 1036.91 418.87 1010.75 394.25 C 984.59 369.63 961.15 351.20 928.70 334.31 C 896.24 317.41 860.96 305.89 823.67 297.33 C 786.39 288.77 735.98 284.34 696.00 286.00 C 656.02 287.66 610.93 295.48 574.68 306.68 C 538.43 317.88 508.29 332.59 476.70 350.70 C 445.10 368.81 424.60 388.42 397.00 412.00 Z"/>
</g>
<g fill="None" fill-opacity="0.0" stroke="#FCFDFC" stroke-opacity="1.00" stroke-width="0.3"><path d="
M 415.00 929.00 
C 418.92 932.92 423.13 937.13 427.00 941.00
C 463.92 972.55 497.07 991.31 544.93 1002.07 C 592.78 1012.84 654.54 1010.67 701.78 994.78 C 749.02 978.88 791.38 963.73 841.93 956.93 C 892.48 950.12 952.13 951.54 1000.00 969.00
C 1000.51 966.28 1002.68 968.39 1004.00 967.00
C 1001.56 960.08 1004.29 950.63 1004.00 944.00 C 1003.71 937.37 1008.30 928.34 1004.00 924.00
C 995.43 915.35 980.80 916.55 969.98 911.02 C 959.15 905.50 945.22 905.06 932.98 901.02 C 920.73 896.99 906.53 895.92 893.00 894.00 C 879.47 892.08 863.55 890.67 849.00 891.00 C 834.45 891.33 818.13 891.30 804.00 893.00 C 789.86 894.70 776.40 895.92 762.78 898.78 C 749.15 901.64 736.85 903.95 723.00 906.00 C 709.15 908.05 693.31 908.72 679.00 909.00 C 664.69 909.28 649.66 906.97 636.78 904.22 C 623.90 901.47 612.31 896.99 600.92 892.08 C 589.54 887.17 581.07 881.42 571.25 874.75 C 561.43 868.08 554.01 861.95 545.75 853.25 C 537.49 844.55 530.53 837.78 524.08 827.92 C 517.63 818.06 511.97 809.11 507.08 797.92 C 502.18 786.74 497.94 775.48 495.02 762.98 C 492.11 750.47 489.38 735.61 489.02 721.98 C 488.67 708.34 489.26 690.14 491.00 677.00 C 492.74 663.86 495.76 650.46 499.32 638.32 C 502.88 626.18 507.63 614.76 512.77 603.77 C 517.91 592.78 522.92 583.03 529.30 573.30 C 535.69 563.58 541.57 554.61 548.77 545.77 C 555.97 536.93 563.07 529.27 571.25 521.25 C 579.42 513.22 587.42 506.51 596.25 499.25 C 605.07 491.98 614.23 486.19 624.08 480.08 C 633.92 473.97 643.29 468.34 654.23 463.23 C 665.17 458.11 676.01 453.71 688.07 450.07 C 700.14 446.43 712.05 442.20 725.22 440.22 C 738.39 438.24 755.06 436.00 769.00 436.00
C 775.61 435.36 783.46 435.37 790.00 436.00
C 882.17 436.00 963.21 496.72 1007.00 576.00
C 1021.01 566.64 1033.65 553.80 1048.00 545.00
C 1048.05 542.60 1046.03 540.96 1045.00 539.00
C 1026.47 506.79 1009.83 478.75 982.77 451.23 C 955.71 423.71 931.51 404.43 895.07 388.93 C 858.64 373.42 811.92 364.55 770.00 364.00 C 728.08 363.45 676.12 370.29 638.22 382.22 C 600.33 394.16 568.03 408.29 535.75 428.75 C 503.46 449.20 479.87 467.91 453.25 496.25 C 426.63 524.59 410.02 550.21 391.78 584.78 C 373.53 619.34 362.41 658.63 355.78 698.78 C 349.15 738.93 350.20 794.41 362.01 832.99 C 373.82 871.57 388.81 898.35 415.00 929.00 Z"/>
</g>
<g fill="None" fill-opacity="0.0" stroke="#658084" stroke-opacity="1.00" stroke-width="0.3"><path d="
M 384.00 425.00 
C 388.21 420.79 392.75 416.25 397.00 412.00
C 392.42 415.91 387.96 420.37 384.00 425.00 Z"/>
</g>
<g fill="None" fill-opacity="0.0" stroke="#8D8D90" stroke-opacity="1.00" stroke-width="0.3"><path d="
M 769.00 436.00 
C 776.00 436.00 783.00 436.00 790.00 436.00
C 783.46 435.37 775.61 435.36 769.00 436.00 Z"/>
</g>
<g fill="None" fill-opacity="0.0" stroke="#061515" stroke-opacity="1.00" stroke-width="0.3"><path d="
M 1004.00 924.00 
C 1009.48 922.96 1008.88 907.56 1012.70 902.69 C 1016.51 897.83 1018.93 888.48 1023.23 883.23 C 1027.53 877.98 1031.12 871.02 1035.75 865.75 C 1040.38 860.49 1044.79 854.69 1049.25 849.25 C 1053.71 843.80 1058.20 838.16 1062.75 832.75 C 1067.30 827.34 1071.50 821.51 1076.25 816.25 C 1081.00 810.98 1085.10 805.02 1089.70 799.70 C 1094.29 794.38 1098.46 788.33 1103.25 783.25 C 1108.03 778.16 1111.57 771.28 1116.75 766.75 C 1121.92 762.21 1124.29 754.66 1130.00 751.00
C 1121.69 748.71 1114.35 739.74 1105.77 736.23 C 1097.19 732.72 1088.81 725.95 1080.31 721.70 C 1071.80 717.44 1063.63 711.12 1054.92 707.08 C 1046.22 703.03 1039.23 696.78 1030.75 692.25 C 1022.28 687.71 1013.69 682.52 1005.25 677.75 C 996.82 672.97 988.13 668.39 980.00 663.00
C 1070.55 658.64 1163.39 655.20 1255.00 657.00
C 1279.39 657.00 1303.91 657.88 1328.00 660.00
C 1343.40 661.35 1361.45 663.12 1376.22 665.78 C 1391.00 668.44 1401.74 675.64 1414.00 681.00
C 1416.76 682.21 1420.98 685.47 1423.77 686.23 C 1426.56 686.99 1430.55 692.37 1433.00 692.00
C 1433.10 692.58 1433.99 690.06 1434.00 690.00
C 1433.02 670.92 1413.27 657.66 1396.97 649.03 C 1380.68 640.40 1350.76 637.82 1332.00 636.00
C 1307.21 633.60 1281.81 634.97 1257.00 633.00
C 1208.70 629.17 1159.02 634.81 1111.00 634.00 C 1062.98 633.19 1015.73 638.35 968.00 639.00
C 978.78 627.21 992.29 619.66 1004.08 609.08 C 1015.87 598.50 1030.03 590.42 1041.70 579.70 C 1053.37 568.97 1071.01 562.43 1075.32 546.32 C 1079.63 530.21 1086.75 510.38 1088.00 494.00
C 1085.46 486.22 1078.26 479.60 1074.00 473.00
C 1067.56 479.88 1067.35 494.81 1062.93 505.93 C 1058.51 517.04 1056.37 531.05 1051.00 542.00
C 1047.31 537.78 1053.77 526.89 1047.00 525.00
C 1047.44 530.18 1047.37 534.52 1048.00 540.00
C 1047.85 538.00 1045.12 539.10 1045.00 539.00
C 1046.03 540.96 1048.05 542.60 1048.00 545.00
C 1033.65 553.80 1021.01 566.64 1007.00 576.00
C 963.21 496.72 882.17 436.00 790.00 436.00
C 783.00 436.00 776.00 436.00 769.00 436.00
C 755.06 436.00 738.39 438.24 725.22 440.22 C 712.05 442.20 700.14 446.43 688.07 450.07 C 676.01 453.71 665.17 458.11 654.23 463.23 C 643.29 468.34 633.92 473.97 624.08 480.08 C 614.23 486.19 605.07 491.98 596.25 499.25 C 587.42 506.51 579.42 513.22 571.25 521.25 C 563.07 529.27 555.97 536.93 548.77 545.77 C 541.57 554.61 535.69 563.58 529.30 573.30 C 522.92 583.03 517.91 592.78 512.77 603.77 C 507.63 614.76 502.88 626.18 499.32 638.32 C 495.76 650.46 492.74 663.86 491.00 677.00 C 489.26 690.14 488.67 708.34 489.02 721.98 C 489.38 735.61 492.11 750.47 495.02 762.98 C 497.94 775.48 502.18 786.74 507.08 797.92 C 511.97 809.11 517.63 818.06 524.08 827.92 C 530.53 837.78 537.49 844.55 545.75 853.25 C 554.01 861.95 561.43 868.08 571.25 874.75 C 581.07 881.42 589.54 887.17 600.92 892.08 C 612.31 896.99 623.90 901.47 636.78 904.22 C 649.66 906.97 664.69 909.28 679.00 909.00 C 693.31 908.72 709.15 908.05 723.00 906.00 C 736.85 903.95 749.15 901.64 762.78 898.78 C 776.40 895.92 789.86 894.70 804.00 893.00 C 818.13 891.30 834.45 891.33 849.00 891.00 C 863.55 890.67 879.47 892.08 893.00 894.00 C 906.53 895.92 920.73 896.99 932.98 901.02 C 945.22 905.06 959.15 905.50 969.98 911.02 C 980.80 916.55 995.43 915.35 1004.00 924.00
M 802.00 655.00 
C 799.18 655.27 795.76 655.27 793.00 655.00
C 776.87 655.00 760.69 647.27 748.75 637.25 C 736.81 627.23 726.54 616.08 720.70 602.31 C 714.85 588.53 704.32 570.05 714.75 557.75 C 725.18 545.46 734.59 536.33 748.23 528.23 C 761.87 520.13 779.75 513.41 796.00 513.00 C 812.26 512.59 830.43 519.15 843.70 527.31 C 856.96 535.46 866.27 546.21 875.92 558.08 C 885.57 569.96 892.79 584.25 899.00 598.00
C 870.24 622.66 840.82 651.60 802.00 655.00 Z"/>
</g>
<g fill="None" fill-opacity="0.0" stroke="#777878" stroke-opacity="1.00" stroke-width="0.3"><path d="
M 1257.00 633.00 
C 1252.09 629.90 1249.26 620.58 1245.25 615.75 C 1241.23 610.93 1238.25 602.64 1233.25 597.75 C 1228.24 592.86 1226.14 584.66 1221.75 579.25 C 1217.35 573.85 1214.11 567.67 1209.75 562.25 C 1205.39 556.83 1202.50 549.32 1198.08 543.92 C 1193.66 538.52 1191.10 530.52 1186.25 525.75 C 1181.39 520.98 1179.99 511.27 1174.00 508.00
C 1164.63 506.35 1153.39 505.74 1144.22 503.78 C 1135.05 501.82 1124.56 501.75 1116.00 499.00 C 1107.44 496.25 1094.96 499.71 1088.00 494.00
C 1086.75 510.38 1079.63 530.21 1075.32 546.32 C 1071.01 562.43 1053.37 568.97 1041.70 579.70 C 1030.03 590.42 1015.87 598.50 1004.08 609.08 C 992.29 619.66 978.78 627.21 968.00 639.00
C 1015.73 638.35 1062.98 633.19 1111.00 634.00 C 1159.02 634.81 1208.70 629.17 1257.00 633.00 Z"/>
</g>
<g fill="None" fill-opacity="0.0" stroke="#AFAFAE" stroke-opacity="1.00" stroke-width="0.3"><path d="
M 1257.00 633.00 
C 1281.81 634.97 1307.21 633.60 1332.00 636.00
C 1325.45 631.27 1324.01 619.11 1317.75 613.25 C 1311.49 607.40 1309.09 597.06 1303.70 590.31 C 1298.30 583.55 1294.50 574.70 1289.08 567.92 C 1283.66 561.14 1280.46 551.67 1274.70 545.30 C 1268.93 538.94 1266.42 527.36 1260.00 522.00
C 1233.06 518.04 1202.26 512.97 1174.00 508.00
C 1179.99 511.27 1181.39 520.98 1186.25 525.75 C 1191.10 530.52 1193.66 538.52 1198.08 543.92 C 1202.50 549.32 1205.39 556.83 1209.75 562.25 C 1214.11 567.67 1217.35 573.85 1221.75 579.25 C 1226.14 584.66 1228.24 592.86 1233.25 597.75 C 1238.25 602.64 1241.23 610.93 1245.25 615.75 C 1249.26 620.58 1252.09 629.90 1257.00 633.00 Z"/>
</g>
<g fill="None" fill-opacity="0.0" stroke="#F8F8F6" stroke-opacity="1.00" stroke-width="0.3"><path d="
M 793.00 655.00 
C 796.00 655.00 799.00 655.00 802.00 655.00
C 840.82 651.60 870.24 622.66 899.00 598.00
C 892.79 584.25 885.57 569.96 875.92 558.08 C 866.27 546.21 856.96 535.46 843.70 527.31 C 830.43 519.15 812.26 512.59 796.00 513.00 C 779.75 513.41 761.87 520.13 748.23 528.23 C 734.59 536.33 725.18 545.46 714.75 557.75 C 704.32 570.05 714.85 588.53 720.70 602.31 C 726.54 616.08 736.81 627.23 748.75 637.25 C 760.69 647.27 776.87 655.00 793.00 655.00
M 760.00 619.00 
C 756.99 616.63 754.43 613.84 752.00 611.00
C 743.54 601.10 740.48 592.69 736.68 580.32 C 732.88 567.96 744.42 561.27 753.75 553.75 C 763.07 546.22 773.99 542.40 786.01 540.01 C 798.03 537.61 813.55 541.27 823.75 547.25 C 833.94 553.24 841.46 558.78 849.25 567.75 C 857.04 576.73 863.10 585.00 869.00 595.00
C 842.19 625.08 795.21 649.39 760.00 619.00 Z"/>
</g>
<g fill="None" fill-opacity="0.0" stroke="#2E2E2E" stroke-opacity="1.00" stroke-width="0.3"><path d="
M 1332.00 636.00 
C 1350.76 637.82 1380.68 640.40 1396.97 649.03 C 1413.27 657.66 1433.02 670.92 1434.00 690.00
C 1434.64 684.85 1434.87 677.48 1435.00 673.00
C 1432.03 629.37 1416.11 592.39 1381.75 563.25 C 1347.39 534.11 1303.08 528.33 1260.00 522.00
C 1266.42 527.36 1268.93 538.94 1274.70 545.30 C 1280.46 551.67 1283.66 561.14 1289.08 567.92 C 1294.50 574.70 1298.30 583.55 1303.70 590.31 C 1309.09 597.06 1311.49 607.40 1317.75 613.25 C 1324.01 619.11 1325.45 631.27 1332.00 636.00 Z"/>
</g>
<g fill="None" fill-opacity="0.0" stroke="#071616" stroke-opacity="1.00" stroke-width="0.3"><path d="
M 752.00 611.00 
C 754.53 613.53 757.44 616.63 760.00 619.00
C 795.21 649.39 842.19 625.08 869.00 595.00
C 863.10 585.00 857.04 576.73 849.25 567.75 C 841.46 558.78 833.94 553.24 823.75 547.25 C 813.55 541.27 798.03 537.61 786.01 540.01 C 773.99 542.40 763.07 546.22 753.75 553.75 C 744.42 561.27 732.88 567.96 736.68 580.32 C 740.48 592.69 743.54 601.10 752.00 611.00
M 818.00 549.00 
C 838.26 552.81 832.08 585.41 811.00 581.00 C 789.91 576.59 797.95 545.23 818.00 549.00 Z"/>
</g>
<g fill="None" fill-opacity="0.0" stroke="#F4F5F3" stroke-opacity="1.00" stroke-width="0.3"><path d="
M 818.00 549.00 
C 797.95 545.23 789.91 576.59 811.00 581.00 C 832.08 585.41 838.26 552.81 818.00 549.00 Z"/>
</g>
<g fill="None" fill-opacity="0.0" stroke="#717375" stroke-opacity="1.00" stroke-width="0.3"><path d="
M 760.00 619.00 
C 757.44 616.63 754.53 613.53 752.00 611.00
C 754.43 613.84 756.99 616.63 760.00 619.00 Z"/>
</g>
<g fill="None" fill-opacity="0.0" stroke="#606365" stroke-opacity="1.00" stroke-width="0.3"><path d="
M 802.00 655.00 
C 799.00 655.00 796.00 655.00 793.00 655.00
C 795.76 655.27 799.18 655.27 802.00 655.00 Z"/>
</g>
<g fill="None" fill-opacity="0.0" stroke="#777777" stroke-opacity="1.00" stroke-width="0.3"><path d="
M 1130.00 751.00 
C 1137.54 746.16 1150.61 750.38 1159.99 747.99 C 1169.37 745.60 1182.19 746.63 1192.00 745.00
C 1198.12 742.51 1199.50 731.93 1204.75 727.75 C 1210.00 723.57 1212.74 715.46 1217.30 710.30 C 1221.87 705.14 1226.09 698.73 1229.77 692.77 C 1233.45 686.81 1238.62 681.63 1242.75 675.75 C 1246.89 669.88 1251.85 663.38 1255.00 657.00
C 1163.39 655.20 1070.55 658.64 980.00 663.00
C 988.13 668.39 996.82 672.97 1005.25 677.75 C 1013.69 682.52 1022.28 687.71 1030.75 692.25 C 1039.23 696.78 1046.22 703.03 1054.92 707.08 C 1063.63 711.12 1071.80 717.44 1080.31 721.70 C 1088.81 725.95 1097.19 732.72 1105.77 736.23 C 1114.35 739.74 1121.69 748.71 1130.00 751.00 Z"/>
</g>
<g fill="None" fill-opacity="0.0" stroke="#AEAEAD" stroke-opacity="1.00" stroke-width="0.3"><path d="
M 1192.00 745.00 
C 1218.10 740.68 1247.93 739.62 1275.00 737.00
C 1273.34 736.86 1271.66 737.10 1270.00 737.00
C 1289.70 711.49 1308.99 685.89 1328.00 660.00
C 1303.91 657.88 1279.39 657.00 1255.00 657.00
C 1251.85 663.38 1246.89 669.88 1242.75 675.75 C 1238.62 681.63 1233.45 686.81 1229.77 692.77 C 1226.09 698.73 1221.87 705.14 1217.30 710.30 C 1212.74 715.46 1210.00 723.57 1204.75 727.75 C 1199.50 731.93 1198.12 742.51 1192.00 745.00 Z"/>
</g>
<g fill="None" fill-opacity="0.0" stroke="#2D2E2D" stroke-opacity="1.00" stroke-width="0.3"><path d="
M 1275.00 737.00 
C 1283.30 736.20 1292.75 735.85 1300.78 734.78 C 1308.81 733.70 1316.59 732.17 1323.99 729.99 C 1331.39 727.81 1338.51 726.12 1345.31 723.31 C 1352.10 720.49 1358.56 717.92 1364.77 714.77 C 1370.98 711.62 1376.83 707.69 1382.75 704.75 C 1388.67 701.82 1393.49 695.50 1399.25 693.25 C 1405.01 690.99 1408.17 681.64 1414.00 681.00
C 1401.74 675.64 1391.00 668.44 1376.22 665.78 C 1361.45 663.12 1343.40 661.35 1328.00 660.00
C 1308.99 685.89 1289.70 711.49 1270.00 737.00
C 1271.66 737.10 1273.34 736.86 1275.00 737.00 Z"/>
</g>
<g fill="None" fill-opacity="0.0" stroke="#464E52" stroke-opacity="1.00" stroke-width="0.3"><path d="
M 1434.00 690.00 
C 1433.99 690.06 1433.10 692.58 1433.00 692.00
C 1433.46 694.56 1436.04 686.55 1435.00 684.00 C 1433.96 681.45 1435.20 675.87 1435.00 673.00
C 1434.87 677.48 1434.64 684.85 1434.00 690.00 Z"/>
</g>
<g fill="None" fill-opacity="0.0" stroke="#FEFEFD" stroke-opacity="1.00" stroke-width="0.3"><path d="
M 0.00 1600.00 
L 1600.00 1600.00
L 1600.00 843.00
C 1596.03 889.22 1589.27 945.16 1577.93 988.93 C 1566.59 1032.70 1553.71 1075.08 1536.78 1114.78 C 1519.85 1154.47 1500.95 1188.77 1479.31 1224.31 C 1457.66 1259.84 1433.81 1288.30 1408.30 1319.30 C 1382.80 1350.31 1355.23 1376.59 1325.08 1403.08 C 1294.93 1429.58 1263.96 1453.62 1229.75 1474.75 C 1195.53 1495.88 1158.43 1517.84 1121.00 1533.00
C 1122.26 1512.40 1122.38 1490.68 1123.00 1470.00 C 1123.62 1449.32 1121.80 1428.16 1121.00 1408.00 C 1120.20 1387.84 1118.35 1366.62 1117.00 1347.00 C 1115.65 1327.39 1110.94 1310.05 1108.00 1292.00
C 1098.43 1287.96 1085.48 1290.96 1075.00 1289.00 C 1064.51 1287.04 1050.24 1289.36 1039.78 1289.78 C 1029.32 1290.19 1017.12 1291.39 1006.99 1292.99 C 996.86 1294.59 986.00 1296.91 976.32 1299.32 C 966.64 1301.74 958.06 1305.22 948.78 1307.78 C 939.49 1310.34 931.54 1314.51 922.77 1317.77 C 914.00 1321.03 905.23 1324.80 897.30 1329.30 C 889.37 1333.80 881.80 1337.51 874.31 1342.31 C 866.81 1347.10 859.81 1351.47 852.75 1356.75 C 845.70 1362.04 837.73 1366.36 831.00 1372.00
C 824.13 1377.75 816.62 1383.88 810.00 1390.00
C 772.61 1424.57 738.65 1465.69 716.00 1510.00
C 707.39 1526.84 698.91 1544.29 691.00 1561.00
C 686.63 1570.23 682.75 1580.22 680.00 1590.00
C 670.14 1590.74 661.39 1587.22 652.00 1586.00
C 643.88 1584.60 635.96 1582.94 628.00 1581.00
C 594.31 1572.79 560.71 1564.63 528.00 1553.00
C 576.68 1383.28 716.71 1232.42 886.00 1178.00
C 893.76 1175.24 901.85 1172.05 910.00 1170.00
C 934.06 1163.95 958.27 1161.02 983.00 1157.00
C 991.19 1155.67 1001.39 1155.68 1010.00 1155.00
C 1030.28 1153.39 1054.14 1153.16 1074.00 1156.00
C 1075.33 1156.00 1076.67 1156.00 1078.00 1156.00
C 1071.16 1120.97 1055.84 1088.00 1041.00 1056.00
C 1039.33 1057.59 1033.21 1055.12 1032.00 1055.00
C 991.91 1055.00 942.96 1056.24 906.07 1064.07 C 869.18 1071.91 836.06 1081.92 803.03 1095.03 C 769.99 1108.14 743.36 1122.35 714.23 1140.23 C 685.09 1158.11 663.93 1175.85 638.00 1198.00
C 634.02 1201.98 630.26 1206.36 626.00 1210.00
C 536.43 1294.70 480.13 1405.88 460.00 1524.00
C 414.35 1503.48 370.74 1477.69 330.00 1448.00
C 322.83 1442.77 315.71 1437.51 309.00 1432.00
C 293.10 1418.94 277.62 1404.36 261.00 1392.00
C 257.18 1389.16 254.26 1385.26 251.00 1382.00
C 247.76 1379.23 244.94 1375.94 242.00 1373.00
C 219.32 1350.32 198.23 1325.88 177.00 1302.00
C 170.18 1294.33 164.37 1286.07 158.00 1278.00
C 142.90 1258.88 129.61 1237.84 118.00 1217.00
C 102.32 1188.87 84.83 1163.80 72.26 1133.74 C 59.68 1103.69 47.59 1075.77 37.78 1042.22 C 27.97 1008.68 18.25 974.68 11.99 939.01 C 5.73 903.33 2.12 859.96 0.00 823.00
L 0.00 1600.00 Z"/>
</g>
<g fill="None" fill-opacity="0.0" stroke="#88ABAA" stroke-opacity="1.00" stroke-width="0.3"><path d="
M 242.00 841.00 
C 242.00 840.96 243.00 841.00 243.00 841.00
C 243.00 838.67 243.00 836.33 243.00 834.00
C 242.84 835.70 242.05 838.59 242.00 841.00 Z"/>
</g>
<g fill="None" fill-opacity="0.0" stroke="#567778" stroke-opacity="1.00" stroke-width="0.3"><path d="
M 242.00 852.00 
C 242.29 848.99 243.00 844.75 243.00 841.00
C 243.00 841.00 242.00 840.96 242.00 841.00
C 241.93 844.66 242.00 848.34 242.00 852.00 Z"/>
</g>
<g fill="None" fill-opacity="0.0" stroke="#4F7877" stroke-opacity="1.00" stroke-width="0.3"><path d="
M 241.00 885.00 
C 241.16 883.30 241.95 880.41 242.00 878.00
C 241.84 879.70 241.05 882.59 241.00 885.00 Z"/>
</g>
<g fill="None" fill-opacity="0.0" stroke="#768385" stroke-opacity="1.00" stroke-width="0.3"><path d="
M 427.00 941.00 
C 423.13 937.13 418.92 932.92 415.00 929.00
C 418.62 933.24 422.71 937.34 427.00 941.00 Z"/>
</g>
<g fill="None" fill-opacity="0.0" stroke="#7E9493" stroke-opacity="1.00" stroke-width="0.3"><path d="
M 1032.00 1055.00 
C 1033.21 1055.12 1039.33 1057.59 1041.00 1056.00
C 1040.76 1055.47 1040.14 1054.34 1040.00 1054.00
C 1039.15 1053.83 1033.88 1055.00 1032.00 1055.00 Z"/>
</g>
<g fill="None" fill-opacity="0.0" stroke="#42948E" stroke-opacity="1.00" stroke-width="0.3"><path d="
M 158.00 1278.00 
C 164.37 1286.07 170.18 1294.33 177.00 1302.00
C 178.49 1299.16 189.71 1298.74 192.70 1292.70 C 195.68 1286.65 200.14 1283.07 203.70 1277.70 C 207.26 1272.33 210.66 1267.45 214.25 1262.25 C 217.83 1257.05 222.36 1252.99 225.70 1247.70 C 229.04 1242.40 233.38 1237.15 237.08 1232.08 C 240.78 1227.02 244.34 1222.09 248.08 1217.08 C 251.82 1212.08 255.34 1207.11 259.23 1202.23 C 263.12 1197.35 265.79 1191.66 270.08 1187.08 C 274.38 1182.51 276.86 1175.61 281.26 1171.26 C 285.65 1166.90 297.80 1174.61 303.93 1171.93 C 310.05 1169.25 316.82 1168.84 321.75 1163.75 C 326.69 1158.67 330.08 1155.39 333.23 1149.23 C 336.38 1143.07 338.41 1133.21 336.93 1126.07 C 335.45 1118.93 332.90 1113.78 328.92 1108.08 C 324.94 1102.38 320.65 1099.51 314.69 1096.31 C 308.74 1093.10 299.05 1091.99 292.02 1093.02 C 285.00 1094.06 278.18 1096.22 272.75 1100.75 C 267.32 1105.28 264.48 1109.11 261.31 1115.31 C 258.13 1121.50 257.28 1129.09 258.00 1136.00 C 258.72 1142.91 260.45 1149.87 264.00 1156.00
C 257.33 1164.23 250.43 1173.27 243.92 1181.92 C 237.41 1190.57 230.81 1199.70 224.30 1208.30 C 217.79 1216.90 211.60 1226.82 205.25 1235.25 C 198.90 1243.67 190.83 1253.19 185.75 1261.75 C 180.68 1270.32 168.52 1283.66 158.00 1278.00
M 302.00 1116.00 
C 321.43 1120.81 312.84 1153.13 293.00 1147.00 C 273.16 1140.87 282.34 1111.13 302.00 1116.00 Z"/>
</g>
<g fill="None" fill-opacity="0.0" stroke="#072C30" stroke-opacity="1.00" stroke-width="0.3"><path d="
M 302.00 1116.00 
C 282.34 1111.13 273.16 1140.87 293.00 1147.00 C 312.84 1153.13 321.43 1120.81 302.00 1116.00 Z"/>
</g>
<g fill="None" fill-opacity="0.0" stroke="#42938D" stroke-opacity="1.00" stroke-width="0.3"><path d="
M 242.00 1373.00 
C 244.94 1375.94 247.76 1379.23 251.00 1382.00
C 253.92 1384.50 257.44 1387.25 260.00 1390.00
C 301.82 1334.03 343.47 1277.45 385.00 1221.00
C 392.69 1224.57 401.43 1223.83 409.33 1222.33 C 417.23 1220.83 421.97 1217.34 427.75 1211.75 C 433.53 1206.17 436.39 1200.73 438.07 1193.07 C 439.76 1185.42 439.37 1174.95 435.92 1168.08 C 432.48 1161.20 429.39 1156.77 423.23 1151.77 C 417.07 1146.77 409.87 1145.06 402.00 1144.00 C 394.13 1142.94 385.92 1145.51 379.23 1149.23 C 372.54 1152.95 369.40 1157.59 364.92 1163.92 C 360.44 1170.25 359.90 1179.35 359.01 1186.99 C 358.12 1194.63 366.76 1202.00 365.25 1208.25 C 363.74 1214.51 355.59 1218.85 352.77 1224.77 C 349.95 1230.69 343.96 1235.69 340.30 1241.30 C 336.64 1246.92 332.12 1252.72 328.25 1258.25 C 324.38 1263.78 319.95 1268.61 316.25 1274.25 C 312.55 1279.89 307.62 1285.24 303.92 1290.92 C 300.21 1296.59 295.50 1302.16 291.75 1307.75 C 288.01 1313.35 283.09 1318.95 279.25 1324.25 C 275.41 1329.55 270.95 1336.17 266.92 1340.92 C 262.89 1345.67 259.19 1354.28 254.75 1357.75 C 250.32 1361.23 247.75 1373.00 242.00 1373.00
M 405.00 1168.00 
C 423.38 1172.28 413.59 1206.88 394.33 1198.67 C 375.07 1190.46 384.97 1163.34 405.00 1168.00 Z"/>
</g>
<g fill="None" fill-opacity="0.0" stroke="#40948E" stroke-opacity="1.00" stroke-width="0.3"><path d="
M 983.00 1157.00 
C 983.93 1157.26 985.06 1156.80 986.00 1157.00
C 985.86 1166.98 986.19 1175.91 986.00 1186.00 C 985.81 1196.09 986.35 1205.66 986.00 1216.00 C 985.65 1226.34 986.77 1234.04 986.00 1245.00 C 985.23 1255.96 1000.86 1251.14 1009.00 1252.00
C 1009.74 1241.83 1008.01 1230.01 1009.00 1220.00 C 1009.99 1209.99 1007.11 1197.41 1009.00 1188.00 C 1010.89 1178.59 1004.61 1163.27 1010.00 1156.00
C 1010.00 1155.50 1010.00 1155.00 1010.00 1155.00
C 1001.39 1155.68 991.19 1155.67 983.00 1157.00 Z"/>
</g>
<g fill="None" fill-opacity="0.0" stroke="#061615" stroke-opacity="1.00" stroke-width="0.3"><path d="
M 1010.00 1156.00 
C 1010.00 1162.26 1010.09 1168.76 1010.00 1175.00 C 1009.91 1181.24 1010.23 1187.84 1010.00 1194.00 C 1009.77 1200.16 1010.50 1208.14 1010.00 1214.00 C 1009.50 1219.86 1011.16 1227.95 1010.00 1233.00 C 1008.84 1238.05 1012.93 1249.25 1009.00 1252.00
C 1000.86 1251.14 985.23 1255.96 986.00 1245.00 C 986.77 1234.04 985.65 1226.34 986.00 1216.00 C 986.35 1205.66 985.81 1196.09 986.00 1186.00 C 986.19 1175.91 985.86 1166.98 986.00 1157.00
C 985.06 1156.80 983.93 1157.26 983.00 1157.00
C 958.27 1161.02 934.06 1163.95 910.00 1170.00
C 905.31 1174.30 910.44 1186.60 909.00 1193.00 C 907.56 1199.40 909.62 1209.87 909.00 1217.00 C 908.38 1224.13 909.22 1233.73 909.00 1241.00 C 908.78 1248.27 908.97 1258.07 909.00 1265.00 C 909.03 1271.93 908.86 1278.96 901.92 1281.92 C 894.97 1284.87 886.73 1282.36 879.00 1283.00 C 871.27 1283.64 862.98 1282.68 855.00 1283.00 C 847.02 1283.32 838.07 1282.76 830.00 1283.00
C 830.42 1312.65 829.01 1342.75 831.00 1372.00
C 837.73 1366.36 845.70 1362.04 852.75 1356.75 C 859.81 1351.47 866.81 1347.10 874.31 1342.31 C 881.80 1337.51 889.37 1333.80 897.30 1329.30 C 905.23 1324.80 914.00 1321.03 922.77 1317.77 C 931.54 1314.51 939.49 1310.34 948.78 1307.78 C 958.06 1305.22 966.64 1301.74 976.32 1299.32 C 986.00 1296.91 996.86 1294.59 1006.99 1292.99 C 1017.12 1291.39 1029.32 1290.19 1039.78 1289.78 C 1050.24 1289.36 1064.51 1287.04 1075.00 1289.00 C 1085.48 1290.96 1098.43 1287.96 1108.00 1292.00
C 1105.41 1246.64 1092.63 1200.62 1079.00 1157.00
C 1077.26 1157.91 1075.06 1156.15 1074.00 1156.00
C 1054.14 1153.16 1030.28 1153.39 1010.00 1155.00
C 1010.00 1155.00 1010.00 1155.50 1010.00 1156.00 Z"/>
</g>
<g fill="None" fill-opacity="0.0" stroke="#174A46" stroke-opacity="1.00" stroke-width="0.3"><path d="
M 1009.00 1252.00 
C 1012.93 1249.25 1008.84 1238.05 1010.00 1233.00 C 1011.16 1227.95 1009.50 1219.86 1010.00 1214.00 C 1010.50 1208.14 1009.77 1200.16 1010.00 1194.00 C 1010.23 1187.84 1009.91 1181.24 1010.00 1175.00 C 1010.09 1168.76 1010.00 1162.26 1010.00 1156.00
C 1004.61 1163.27 1010.89 1178.59 1009.00 1188.00 C 1007.11 1197.41 1009.99 1209.99 1009.00 1220.00 C 1008.01 1230.01 1009.74 1241.83 1009.00 1252.00 Z"/>
</g>
<g fill="None" fill-opacity="0.0" stroke="#072C2F" stroke-opacity="1.00" stroke-width="0.3"><path d="
M 405.00 1168.00 
C 384.97 1163.34 375.07 1190.46 394.33 1198.67 C 413.59 1206.88 423.38 1172.28 405.00 1168.00 Z"/>
</g>
<g fill="None" fill-opacity="0.0" stroke="#41938D" stroke-opacity="1.00" stroke-width="0.3"><path d="
M 886.00 1178.00 
C 884.92 1179.97 886.00 1185.69 886.00 1188.00
C 886.00 1211.34 888.10 1235.77 886.00 1259.00
C 881.65 1263.50 870.58 1258.52 864.00 1260.00 C 857.42 1261.48 847.21 1258.95 840.00 1260.00 C 832.79 1261.05 823.31 1258.69 816.00 1260.00
C 798.35 1265.58 807.96 1292.38 806.00 1308.00 C 804.04 1323.62 807.47 1349.45 806.00 1366.00
C 788.57 1366.66 772.57 1365.12 755.00 1366.00 C 737.43 1366.88 720.97 1364.33 703.00 1366.00 C 685.03 1367.67 691.68 1391.12 691.00 1406.00 C 690.32 1420.88 691.31 1440.84 691.00 1457.00 C 690.69 1473.16 691.16 1492.28 691.00 1509.00 C 690.84 1525.72 691.12 1544.13 691.00 1561.00
C 698.91 1544.29 707.39 1526.84 716.00 1510.00
C 715.88 1510.22 715.00 1510.00 715.00 1510.00
C 711.15 1506.27 714.98 1496.72 714.00 1491.00 C 713.02 1485.28 714.38 1476.21 714.00 1470.00 C 713.62 1463.79 713.96 1456.31 714.00 1450.00 C 714.04 1443.69 713.57 1435.07 714.00 1429.00 C 714.43 1422.93 712.82 1414.24 714.00 1409.00 C 715.18 1403.76 710.95 1391.83 715.00 1389.00
C 719.69 1385.72 730.05 1390.47 736.00 1389.00 C 741.95 1387.53 750.49 1389.64 757.00 1389.00 C 763.51 1388.36 771.26 1389.24 778.00 1389.00 C 784.74 1388.76 792.19 1389.00 799.00 1389.00
C 801.87 1389.00 808.16 1390.32 810.00 1390.00
C 816.62 1383.88 824.13 1377.75 831.00 1372.00
C 829.01 1342.75 830.42 1312.65 830.00 1283.00
C 838.07 1282.76 847.02 1283.32 855.00 1283.00 C 862.98 1282.68 871.27 1283.64 879.00 1283.00 C 886.73 1282.36 894.97 1284.87 901.92 1281.92 C 908.86 1278.96 909.03 1271.93 909.00 1265.00 C 908.97 1258.07 908.78 1248.27 909.00 1241.00 C 909.22 1233.73 908.38 1224.13 909.00 1217.00 C 909.62 1209.87 907.56 1199.40 909.00 1193.00 C 910.44 1186.60 905.31 1174.30 910.00 1170.00
C 901.85 1172.05 893.76 1175.24 886.00 1178.00 Z"/>
</g>
<g fill="None" fill-opacity="0.0" stroke="#061615" stroke-opacity="1.00" stroke-width="0.3"><path d="
M 628.00 1581.00 
C 627.88 1565.36 628.16 1547.40 628.00 1532.00 C 627.84 1516.60 631.36 1500.44 620.75 1490.25 C 610.14 1480.06 615.64 1462.46 626.08 1455.08 C 636.52 1447.71 653.35 1450.47 659.92 1462.08 C 666.50 1473.68 664.17 1489.24 652.00 1496.00
C 652.00 1526.00 652.00 1556.00 652.00 1586.00
C 661.39 1587.22 670.14 1590.74 680.00 1590.00
C 682.75 1580.22 686.63 1570.23 691.00 1561.00
C 691.12 1544.13 690.84 1525.72 691.00 1509.00 C 691.16 1492.28 690.69 1473.16 691.00 1457.00 C 691.31 1440.84 690.32 1420.88 691.00 1406.00 C 691.68 1391.12 685.03 1367.67 703.00 1366.00 C 720.97 1364.33 737.43 1366.88 755.00 1366.00 C 772.57 1365.12 788.57 1366.66 806.00 1366.00
C 807.47 1349.45 804.04 1323.62 806.00 1308.00 C 807.96 1292.38 798.35 1265.58 816.00 1260.00
C 826.15 1256.79 838.81 1259.66 850.00 1259.00 C 861.19 1258.34 873.69 1259.00 885.00 1259.00
C 882.95 1236.33 883.88 1209.88 886.00 1188.00
C 886.00 1185.69 884.92 1179.97 886.00 1178.00
C 716.71 1232.42 576.68 1383.28 528.00 1553.00
C 560.71 1564.63 594.31 1572.79 628.00 1581.00 Z"/>
</g>
<g fill="None" fill-opacity="0.0" stroke="#21544F" stroke-opacity="1.00" stroke-width="0.3"><path d="
M 885.00 1259.00 
C 885.50 1259.00 886.00 1259.00 886.00 1259.00
C 888.10 1235.77 886.00 1211.34 886.00 1188.00
C 883.88 1209.88 882.95 1236.33 885.00 1259.00 Z"/>
</g>
<g fill="None" fill-opacity="0.0" stroke="#869391" stroke-opacity="1.00" stroke-width="0.3"><path d="
M 626.00 1210.00 
C 630.26 1206.36 634.02 1201.98 638.00 1198.00
C 633.74 1201.64 629.97 1206.02 626.00 1210.00 Z"/>
</g>
<g fill="None" fill-opacity="0.0" stroke="#417B78" stroke-opacity="1.00" stroke-width="0.3"><path d="
M 816.00 1260.00 
C 823.31 1258.69 832.79 1261.05 840.00 1260.00 C 847.21 1258.95 857.42 1261.48 864.00 1260.00 C 870.58 1258.52 881.65 1263.50 886.00 1259.00
C 886.00 1259.00 885.50 1259.00 885.00 1259.00
C 873.69 1259.00 861.19 1258.34 850.00 1259.00 C 838.81 1259.66 826.15 1256.79 816.00 1260.00 Z"/>
</g>
<g fill="None" fill-opacity="0.0" stroke="#44938E" stroke-opacity="1.00" stroke-width="0.3"><path d="
M 309.00 1432.00 
C 315.71 1437.51 322.83 1442.77 330.00 1448.00
C 326.88 1442.04 340.61 1432.03 343.75 1425.75 C 346.89 1419.46 355.01 1411.00 359.25 1404.25 C 363.49 1397.49 370.39 1390.14 375.23 1383.23 C 380.07 1376.32 385.38 1368.55 390.70 1361.70 C 396.01 1354.84 412.40 1363.03 420.92 1358.92 C 429.45 1354.81 437.10 1350.49 442.08 1342.08 C 447.05 1333.66 449.47 1321.44 446.93 1312.07 C 444.38 1302.71 440.43 1295.56 432.75 1289.25 C 425.07 1282.94 415.23 1279.56 405.01 1280.01 C 394.78 1280.46 388.08 1285.33 380.25 1292.25 C 372.42 1299.17 370.15 1308.97 369.00 1319.00 C 367.85 1329.03 376.70 1339.60 372.25 1347.25 C 367.79 1354.90 361.22 1360.98 356.30 1368.30 C 351.39 1375.63 345.61 1382.41 340.75 1389.75 C 335.90 1397.09 330.19 1403.81 324.77 1410.77 C 319.35 1417.73 315.09 1425.72 309.00 1432.00
M 413.00 1305.00 
C 432.15 1308.97 423.68 1342.99 404.33 1336.67 C 384.98 1330.35 392.14 1300.68 413.00 1305.00 Z"/>
</g>
<g fill="None" fill-opacity="0.0" stroke="#082C2E" stroke-opacity="1.00" stroke-width="0.3"><path d="
M 413.00 1305.00 
C 392.14 1300.68 384.98 1330.35 404.33 1336.67 C 423.68 1342.99 432.15 1308.97 413.00 1305.00 Z"/>
</g>
<g fill="None" fill-opacity="0.0" stroke="#83B4AE" stroke-opacity="1.00" stroke-width="0.3"><path d="
M 261.00 1392.00 
C 260.60 1391.56 260.46 1390.50 260.00 1390.00
C 257.44 1387.25 253.92 1384.50 251.00 1382.00
C 254.26 1385.26 257.18 1389.16 261.00 1392.00 Z"/>
</g>
<g fill="None" fill-opacity="0.0" stroke="#31635D" stroke-opacity="1.00" stroke-width="0.3"><path d="
M 715.00 1510.00 
C 714.73 1507.06 715.00 1503.96 715.00 1501.00
C 715.00 1467.00 715.01 1433.00 715.00 1399.00
C 715.00 1397.00 715.00 1395.00 715.00 1393.00
C 715.00 1391.67 715.00 1390.33 715.00 1389.00
C 710.95 1391.83 715.18 1403.76 714.00 1409.00 C 712.82 1414.24 714.43 1422.93 714.00 1429.00 C 713.57 1435.07 714.04 1443.69 714.00 1450.00 C 713.96 1456.31 713.62 1463.79 714.00 1470.00 C 714.38 1476.21 713.02 1485.28 714.00 1491.00 C 714.98 1496.72 711.15 1506.27 715.00 1510.00 Z"/>
</g>
<g fill="None" fill-opacity="0.0" stroke="#02201D" stroke-opacity="1.00" stroke-width="0.3"><path d="
M 715.00 1393.00 
C 716.19 1390.96 720.25 1392.55 722.00 1392.00
C 717.30 1388.97 732.39 1388.41 732.00 1393.00
C 736.39 1389.96 743.14 1393.79 749.08 1392.93 C 755.02 1392.08 761.28 1392.83 768.00 1393.00
C 763.58 1396.79 771.67 1394.02 773.00 1396.00
C 776.05 1393.09 769.46 1395.04 769.00 1393.00
C 780.82 1393.82 787.99 1389.99 799.00 1389.00
C 792.19 1389.00 784.74 1388.76 778.00 1389.00 C 771.26 1389.24 763.51 1388.36 757.00 1389.00 C 750.49 1389.64 741.95 1387.53 736.00 1389.00 C 730.05 1390.47 719.69 1385.72 715.00 1389.00
C 715.00 1390.33 715.00 1391.67 715.00 1393.00 Z"/>
</g>
<g fill="None" fill-opacity="0.0" stroke="#061514" stroke-opacity="1.00" stroke-width="0.3"><path d="
M 715.00 1393.00 
C 715.00 1395.00 715.00 1397.00 715.00 1399.00
C 718.18 1431.81 718.31 1466.81 715.00 1501.00
C 715.00 1503.96 714.73 1507.06 715.00 1510.00
C 715.00 1510.00 715.88 1510.22 716.00 1510.00
C 738.65 1465.69 772.61 1424.57 810.00 1390.00
C 808.16 1390.32 801.87 1389.00 799.00 1389.00
C 787.99 1389.99 780.82 1393.82 769.00 1393.00
C 769.46 1395.04 776.05 1393.09 773.00 1396.00
C 771.67 1394.02 763.58 1396.79 768.00 1393.00
C 761.28 1392.83 755.02 1392.08 749.08 1392.93 C 743.14 1393.79 736.39 1389.96 732.00 1393.00
C 732.39 1388.41 717.30 1388.97 722.00 1392.00
C 720.25 1392.55 716.19 1390.96 715.00 1393.00 Z"/>
</g>
<g fill="None" fill-opacity="0.0" stroke="#011F1B" stroke-opacity="1.00" stroke-width="0.3"><path d="
M 715.00 1501.00 
C 718.31 1466.81 718.18 1431.81 715.00 1399.00
C 715.01 1433.00 715.00 1467.00 715.00 1501.00 Z"/>
</g>
<g fill="None" fill-opacity="0.0" stroke="#41918B" stroke-opacity="1.00" stroke-width="0.3"><path d="
M 628.00 1581.00 
C 635.96 1582.94 643.88 1584.60 652.00 1586.00
C 652.00 1556.00 652.00 1526.00 652.00 1496.00
C 664.17 1489.24 666.50 1473.68 659.92 1462.08 C 653.35 1450.47 636.52 1447.71 626.08 1455.08 C 615.64 1462.46 610.14 1480.06 620.75 1490.25 C 631.36 1500.44 627.84 1516.60 628.00 1532.00 C 628.16 1547.40 627.88 1565.36 628.00 1581.00 Z"/>
</g>
<g fill="#FDFEFD" fill-opacity="1.00" stroke="None">
<path d="
M 0.00 766.00 
C 10.97 567.14 91.83 377.11 235.25 234.25 C 378.66 91.38 567.90 8.68 768.00 0.00
L 0.00 0.00
L 0.00 766.00 Z"/>
</g>
<g fill="#C6D9DF" fill-opacity="1.00" stroke="None">
<path d="
M 0.00 766.00 
L 0.00 823.00
C 2.12 859.96 5.73 903.33 11.99 939.01 C 18.25 974.68 27.97 1008.68 37.78 1042.22 C 47.59 1075.77 59.68 1103.69 72.26 1133.74 C 84.83 1163.80 102.32 1188.87 118.00 1217.00
C 119.11 1211.58 127.62 1206.76 129.92 1200.92 C 132.22 1195.08 137.82 1189.73 140.92 1183.92 C 144.02 1178.11 149.03 1172.22 152.30 1166.30 C 155.58 1160.38 159.49 1154.85 162.77 1148.77 C 166.05 1142.69 170.12 1136.56 173.30 1130.30 C 176.48 1124.04 179.51 1118.12 182.77 1111.77 C 186.03 1105.42 189.20 1098.56 191.93 1091.93 C 194.65 1085.29 198.20 1079.59 200.77 1072.77 C 203.34 1065.96 205.22 1058.90 207.98 1051.98 C 210.73 1045.05 213.03 1037.59 215.32 1030.32 C 217.62 1023.06 219.63 1016.28 221.78 1008.78 C 223.93 1001.28 225.85 993.49 227.78 985.78 C 229.71 978.06 230.31 969.98 232.00 962.00 C 233.69 954.01 234.84 945.60 236.33 937.33 C 237.82 929.06 238.37 920.73 239.00 912.00 C 239.63 903.27 240.82 894.03 241.00 885.00
C 241.05 882.59 241.84 879.70 242.00 878.00
C 242.17 869.34 242.00 860.66 242.00 852.00
C 242.00 848.34 241.93 844.66 242.00 841.00
C 242.05 838.59 242.84 835.70 243.00 834.00
C 243.00 793.41 246.62 744.41 252.00 706.00 C 257.38 667.59 267.88 630.51 279.93 595.93 C 291.98 561.34 306.77 533.79 324.30 503.30 C 341.83 472.81 361.20 451.69 384.00 425.00
C 387.96 420.37 392.42 415.91 397.00 412.00
C 424.60 388.42 445.10 368.81 476.70 350.70 C 508.29 332.59 538.43 317.88 574.68 306.68 C 610.93 295.48 656.02 287.66 696.00 286.00 C 735.98 284.34 786.39 288.77 823.67 297.33 C 860.96 305.89 896.24 317.41 928.70 334.31 C 961.15 351.20 984.59 369.63 1010.75 394.25 C 1036.91 418.87 1055.45 444.26 1074.00 473.00
C 1078.26 479.60 1085.46 486.22 1088.00 494.00
C 1094.96 499.71 1107.44 496.25 1116.00 499.00 C 1124.56 501.75 1135.05 501.82 1144.22 503.78 C 1153.39 505.74 1164.63 506.35 1174.00 508.00
C 1202.26 512.97 1233.06 518.04 1260.00 522.00
C 1303.08 528.33 1347.39 534.11 1381.75 563.25 C 1416.11 592.39 1432.03 629.37 1435.00 673.00
C 1435.20 675.87 1433.96 681.45 1435.00 684.00 C 1436.04 686.55 1433.46 694.56 1433.00 692.00
C 1430.55 692.37 1426.56 686.99 1423.77 686.23 C 1420.98 685.47 1416.76 682.21 1414.00 681.00
C 1408.17 681.64 1405.01 690.99 1399.25 693.25 C 1393.49 695.50 1388.67 701.82 1382.75 704.75 C 1376.83 707.69 1370.98 711.62 1364.77 714.77 C 1358.56 717.92 1352.10 720.49 1345.31 723.31 C 1338.51 726.12 1331.39 727.81 1323.99 729.99 C 1316.59 732.17 1308.81 733.70 1300.78 734.78 C 1292.75 735.85 1283.30 736.20 1275.00 737.00
C 1247.93 739.62 1218.10 740.68 1192.00 745.00
C 1182.19 746.63 1169.37 745.60 1159.99 747.99 C 1150.61 750.38 1137.54 746.16 1130.00 751.00
C 1124.29 754.66 1121.92 762.21 1116.75 766.75 C 1111.57 771.28 1108.03 778.16 1103.25 783.25 C 1098.46 788.33 1094.29 794.38 1089.70 799.70 C 1085.10 805.02 1081.00 810.98 1076.25 816.25 C 1071.50 821.51 1067.30 827.34 1062.75 832.75 C 1058.20 838.16 1053.71 843.80 1049.25 849.25 C 1044.79 854.69 1040.38 860.49 1035.75 865.75 C 1031.12 871.02 1027.53 877.98 1023.23 883.23 C 1018.93 888.48 1016.51 897.83 1012.70 902.69 C 1008.88 907.56 1009.48 922.96 1004.00 924.00
C 1008.30 928.34 1003.71 937.37 1004.00 944.00 C 1004.29 950.63 1001.56 960.08 1004.00 967.00
C 1002.68 968.39 1000.51 966.28 1000.00 969.00
C 1009.17 972.34 1009.07 987.59 1013.32 996.68 C 1017.57 1005.76 1022.29 1015.96 1026.77 1025.23 C 1031.26 1034.50 1036.07 1044.55 1040.00 1054.00
C 1040.14 1054.34 1040.76 1055.47 1041.00 1056.00
C 1055.84 1088.00 1071.16 1120.97 1078.00 1156.00
C 1076.67 1156.00 1075.33 1156.00 1074.00 1156.00
C 1075.06 1156.15 1077.26 1157.91 1079.00 1157.00
C 1092.63 1200.62 1105.41 1246.64 1108.00 1292.00
C 1110.94 1310.05 1115.65 1327.39 1117.00 1347.00 C 1118.35 1366.62 1120.20 1387.84 1121.00 1408.00 C 1121.80 1428.16 1123.62 1449.32 1123.00 1470.00 C 1122.38 1490.68 1122.26 1512.40 1121.00 1533.00
C 1158.43 1517.84 1195.53 1495.88 1229.75 1474.75 C 1263.96 1453.62 1294.93 1429.58 1325.08 1403.08 C 1355.23 1376.59 1382.80 1350.31 1408.30 1319.30 C 1433.81 1288.30 1457.66 1259.84 1479.31 1224.31 C 1500.95 1188.77 1519.85 1154.47 1536.78 1114.78 C 1553.71 1075.08 1566.59 1032.70 1577.93 988.93 C 1589.27 945.16 1596.03 889.22 1600.00 843.00
L 1600.00 767.00
C 1590.47 568.48 1510.05 381.55 1368.75 238.25 C 1227.46 94.95 1042.63 13.18 846.00 0.00
L 768.00 0.00
C 567.90 8.68 378.66 91.38 235.25 234.25 C 91.83 377.11 10.97 567.14 0.00 766.00 Z"/>
</g>
<g fill="#FDFEFD" fill-opacity="1.00" stroke="None">
<path d="
M 1600.00 767.00 
L 1600.00 0.00
L 846.00 0.00
C 1042.63 13.18 1227.46 94.95 1368.75 238.25 C 1510.05 381.55 1590.47 568.48 1600.00 767.00 Z"/>
</g>
<g fill="#0C2C31" fill-opacity="1.00" stroke="None">
<path d="
M 397.00 412.00 
C 392.75 416.25 388.21 420.79 384.00 425.00
C 361.20 451.69 341.83 472.81 324.30 503.30 C 306.77 533.79 291.98 561.34 279.93 595.93 C 267.88 630.51 257.38 667.59 252.00 706.00 C 246.62 744.41 243.00 793.41 243.00 834.00
C 243.00 836.33 243.00 838.67 243.00 841.00
C 243.00 844.75 242.29 848.99 242.00 852.00
C 242.00 860.66 242.17 869.34 242.00 878.00
C 241.95 880.41 241.16 883.30 241.00 885.00
C 240.82 894.03 239.63 903.27 239.00 912.00 C 238.37 920.73 237.82 929.06 236.33 937.33 C 234.84 945.60 233.69 954.01 232.00 962.00 C 230.31 969.98 229.71 978.06 227.78 985.78 C 225.85 993.49 223.93 1001.28 221.78 1008.78 C 219.63 1016.28 217.62 1023.06 215.32 1030.32 C 213.03 1037.59 210.73 1045.05 207.98 1051.98 C 205.22 1058.90 203.34 1065.96 200.77 1072.77 C 198.20 1079.59 194.65 1085.29 191.93 1091.93 C 189.20 1098.56 186.03 1105.42 182.77 1111.77 C 179.51 1118.12 176.48 1124.04 173.30 1130.30 C 170.12 1136.56 166.05 1142.69 162.77 1148.77 C 159.49 1154.85 155.58 1160.38 152.30 1166.30 C 149.03 1172.22 144.02 1178.11 140.92 1183.92 C 137.82 1189.73 132.22 1195.08 129.92 1200.92 C 127.62 1206.76 119.11 1211.58 118.00 1217.00
C 129.61 1237.84 142.90 1258.88 158.00 1278.00
C 168.52 1283.66 180.68 1270.32 185.75 1261.75 C 190.83 1253.19 198.90 1243.67 205.25 1235.25 C 211.60 1226.82 217.79 1216.90 224.30 1208.30 C 230.81 1199.70 237.41 1190.57 243.92 1181.92 C 250.43 1173.27 257.33 1164.23 264.00 1156.00
C 260.45 1149.87 258.72 1142.91 258.00 1136.00 C 257.28 1129.09 258.13 1121.50 261.31 1115.31 C 264.48 1109.11 267.32 1105.28 272.75 1100.75 C 278.18 1096.22 285.00 1094.06 292.02 1093.02 C 299.05 1091.99 308.74 1093.10 314.69 1096.31 C 320.65 1099.51 324.94 1102.38 328.92 1108.08 C 332.90 1113.78 335.45 1118.93 336.93 1126.07 C 338.41 1133.21 336.38 1143.07 333.23 1149.23 C 330.08 1155.39 326.69 1158.67 321.75 1163.75 C 316.82 1168.84 310.05 1169.25 303.93 1171.93 C 297.80 1174.61 285.65 1166.90 281.26 1171.26 C 276.86 1175.61 274.38 1182.51 270.08 1187.08 C 265.79 1191.66 263.12 1197.35 259.23 1202.23 C 255.34 1207.11 251.82 1212.08 248.08 1217.08 C 244.34 1222.09 240.78 1227.02 237.08 1232.08 C 233.38 1237.15 229.04 1242.40 225.70 1247.70 C 222.36 1252.99 217.83 1257.05 214.25 1262.25 C 210.66 1267.45 207.26 1272.33 203.70 1277.70 C 200.14 1283.07 195.68 1286.65 192.70 1292.70 C 189.71 1298.74 178.49 1299.16 177.00 1302.00
C 198.23 1325.88 219.32 1350.32 242.00 1373.00
C 247.75 1373.00 250.32 1361.23 254.75 1357.75 C 259.19 1354.28 262.89 1345.67 266.92 1340.92 C 270.95 1336.17 275.41 1329.55 279.25 1324.25 C 283.09 1318.95 288.01 1313.35 291.75 1307.75 C 295.50 1302.16 300.21 1296.59 303.92 1290.92 C 307.62 1285.24 312.55 1279.89 316.25 1274.25 C 319.95 1268.61 324.38 1263.78 328.25 1258.25 C 332.12 1252.72 336.64 1246.92 340.30 1241.30 C 343.96 1235.69 349.95 1230.69 352.77 1224.77 C 355.59 1218.85 363.74 1214.51 365.25 1208.25 C 366.76 1202.00 358.12 1194.63 359.01 1186.99 C 359.90 1179.35 360.44 1170.25 364.92 1163.92 C 369.40 1157.59 372.54 1152.95 379.23 1149.23 C 385.92 1145.51 394.13 1142.94 402.00 1144.00 C 409.87 1145.06 417.07 1146.77 423.23 1151.77 C 429.39 1156.77 432.48 1161.20 435.92 1168.08 C 439.37 1174.95 439.76 1185.42 438.07 1193.07 C 436.39 1200.73 433.53 1206.17 427.75 1211.75 C 421.97 1217.34 417.23 1220.83 409.33 1222.33 C 401.43 1223.83 392.69 1224.57 385.00 1221.00
C 343.47 1277.45 301.82 1334.03 260.00 1390.00
C 260.46 1390.50 260.60 1391.56 261.00 1392.00
C 277.62 1404.36 293.10 1418.94 309.00 1432.00
C 315.09 1425.72 319.35 1417.73 324.77 1410.77 C 330.19 1403.81 335.90 1397.09 340.75 1389.75 C 345.61 1382.41 351.39 1375.63 356.30 1368.30 C 361.22 1360.98 367.79 1354.90 372.25 1347.25 C 376.70 1339.60 367.85 1329.03 369.00 1319.00 C 370.15 1308.97 372.42 1299.17 380.25 1292.25 C 388.08 1285.33 394.78 1280.46 405.01 1280.01 C 415.23 1279.56 425.07 1282.94 432.75 1289.25 C 440.43 1295.56 444.38 1302.71 446.93 1312.07 C 449.47 1321.44 447.05 1333.66 442.08 1342.08 C 437.10 1350.49 429.45 1354.81 420.92 1358.92 C 412.40 1363.03 396.01 1354.84 390.70 1361.70 C 385.38 1368.55 380.07 1376.32 375.23 1383.23 C 370.39 1390.14 363.49 1397.49 359.25 1404.25 C 355.01 1411.00 346.89 1419.46 343.75 1425.75 C 340.61 1432.03 326.88 1442.04 330.00 1448.00
C 370.74 1477.69 414.35 1503.48 460.00 1524.00
C 480.13 1405.88 536.43 1294.70 626.00 1210.00
C 629.97 1206.02 633.74 1201.64 638.00 1198.00
C 663.93 1175.85 685.09 1158.11 714.23 1140.23 C 743.36 1122.35 769.99 1108.14 803.03 1095.03 C 836.06 1081.92 869.18 1071.91 906.07 1064.07 C 942.96 1056.24 991.91 1055.00 1032.00 1055.00
C 1033.88 1055.00 1039.15 1053.83 1040.00 1054.00
C 1036.07 1044.55 1031.26 1034.50 1026.77 1025.23 C 1022.29 1015.96 1017.57 1005.76 1013.32 996.68 C 1009.07 987.59 1009.17 972.34 1000.00 969.00
C 952.13 951.54 892.48 950.12 841.93 956.93 C 791.38 963.73 749.02 978.88 701.78 994.78 C 654.54 1010.67 592.78 1012.84 544.93 1002.07 C 497.07 991.31 463.92 972.55 427.00 941.00
C 422.71 937.34 418.62 933.24 415.00 929.00
C 388.81 898.35 373.82 871.57 362.01 832.99 C 350.20 794.41 349.15 738.93 355.78 698.78 C 362.41 658.63 373.53 619.34 391.78 584.78 C 410.02 550.21 426.63 524.59 453.25 496.25 C 479.87 467.91 503.46 449.20 535.75 428.75 C 568.03 408.29 600.33 394.16 638.22 382.22 C 676.12 370.29 728.08 363.45 770.00 364.00 C 811.92 364.55 858.64 373.42 895.07 388.93 C 931.51 404.43 955.71 423.71 982.77 451.23 C 1009.83 478.75 1026.47 506.79 1045.00 539.00
C 1045.12 539.10 1047.85 538.00 1048.00 540.00
C 1047.37 534.52 1047.44 530.18 1047.00 525.00
C 1053.77 526.89 1047.31 537.78 1051.00 542.00
C 1056.37 531.05 1058.51 517.04 1062.93 505.93 C 1067.35 494.81 1067.56 479.88 1074.00 473.00
C 1055.45 444.26 1036.91 418.87 1010.75 394.25 C 984.59 369.63 961.15 351.20 928.70 334.31 C 896.24 317.41 860.96 305.89 823.67 297.33 C 786.39 288.77 735.98 284.34 696.00 286.00 C 656.02 287.66 610.93 295.48 574.68 306.68 C 538.43 317.88 508.29 332.59 476.70 350.70 C 445.10 368.81 424.60 388.42 397.00 412.00 Z"/>
</g>
<g fill="#FCFDFC" fill-opacity="1.00" stroke="None">
<path d="
M 415.00 929.00 
C 418.92 932.92 423.13 937.13 427.00 941.00
C 463.92 972.55 497.07 991.31 544.93 1002.07 C 592.78 1012.84 654.54 1010.67 701.78 994.78 C 749.02 978.88 791.38 963.73 841.93 956.93 C 892.48 950.12 952.13 951.54 1000.00 969.00
C 1000.51 966.28 1002.68 968.39 1004.00 967.00
C 1001.56 960.08 1004.29 950.63 1004.00 944.00 C 1003.71 937.37 1008.30 928.34 1004.00 924.00
C 995.43 915.35 980.80 916.55 969.98 911.02 C 959.15 905.50 945.22 905.06 932.98 901.02 C 920.73 896.99 906.53 895.92 893.00 894.00 C 879.47 892.08 863.55 890.67 849.00 891.00 C 834.45 891.33 818.13 891.30 804.00 893.00 C 789.86 894.70 776.40 895.92 762.78 898.78 C 749.15 901.64 736.85 903.95 723.00 906.00 C 709.15 908.05 693.31 908.72 679.00 909.00 C 664.69 909.28 649.66 906.97 636.78 904.22 C 623.90 901.47 612.31 896.99 600.92 892.08 C 589.54 887.17 581.07 881.42 571.25 874.75 C 561.43 868.08 554.01 861.95 545.75 853.25 C 537.49 844.55 530.53 837.78 524.08 827.92 C 517.63 818.06 511.97 809.11 507.08 797.92 C 502.18 786.74 497.94 775.48 495.02 762.98 C 492.11 750.47 489.38 735.61 489.02 721.98 C 488.67 708.34 489.26 690.14 491.00 677.00 C 492.74 663.86 495.76 650.46 499.32 638.32 C 502.88 626.18 507.63 614.76 512.77 603.77 C 517.91 592.78 522.92 583.03 529.30 573.30 C 535.69 563.58 541.57 554.61 548.77 545.77 C 555.97 536.93 563.07 529.27 571.25 521.25 C 579.42 513.22 587.42 506.51 596.25 499.25 C 605.07 491.98 614.23 486.19 624.08 480.08 C 633.92 473.97 643.29 468.34 654.23 463.23 C 665.17 458.11 676.01 453.71 688.07 450.07 C 700.14 446.43 712.05 442.20 725.22 440.22 C 738.39 438.24 755.06 436.00 769.00 436.00
C 775.61 435.36 783.46 435.37 790.00 436.00
C 882.17 436.00 963.21 496.72 1007.00 576.00
C 1021.01 566.64 1033.65 553.80 1048.00 545.00
C 1048.05 542.60 1046.03 540.96 1045.00 539.00
C 1026.47 506.79 1009.83 478.75 982.77 451.23 C 955.71 423.71 931.51 404.43 895.07 388.93 C 858.64 373.42 811.92 364.55 770.00 364.00 C 728.08 363.45 676.12 370.29 638.22 382.22 C 600.33 394.16 568.03 408.29 535.75 428.75 C 503.46 449.20 479.87 467.91 453.25 496.25 C 426.63 524.59 410.02 550.21 391.78 584.78 C 373.53 619.34 362.41 658.63 355.78 698.78 C 349.15 738.93 350.20 794.41 362.01 832.99 C 373.82 871.57 388.81 898.35 415.00 929.00 Z"/>
</g>
<g fill="#658084" fill-opacity="1.00" stroke="None">
<path d="
M 384.00 425.00 
C 388.21 420.79 392.75 416.25 397.00 412.00
C 392.42 415.91 387.96 420.37 384.00 425.00 Z"/>
</g>
<g fill="#8D8D90" fill-opacity="1.00" stroke="None">
<path d="
M 769.00 436.00 
C 776.00 436.00 783.00 436.00 790.00 436.00
C 783.46 435.37 775.61 435.36 769.00 436.00 Z"/>
</g>
<g fill="#061515" fill-opacity="1.00" stroke="None">
<path d="
M 1004.00 924.00 
C 1009.48 922.96 1008.88 907.56 1012.70 902.69 C 1016.51 897.83 1018.93 888.48 1023.23 883.23 C 1027.53 877.98 1031.12 871.02 1035.75 865.75 C 1040.38 860.49 1044.79 854.69 1049.25 849.25 C 1053.71 843.80 1058.20 838.16 1062.75 832.75 C 1067.30 827.34 1071.50 821.51 1076.25 816.25 C 1081.00 810.98 1085.10 805.02 1089.70 799.70 C 1094.29 794.38 1098.46 788.33 1103.25 783.25 C 1108.03 778.16 1111.57 771.28 1116.75 766.75 C 1121.92 762.21 1124.29 754.66 1130.00 751.00
C 1121.69 748.71 1114.35 739.74 1105.77 736.23 C 1097.19 732.72 1088.81 725.95 1080.31 721.70 C 1071.80 717.44 1063.63 711.12 1054.92 707.08 C 1046.22 703.03 1039.23 696.78 1030.75 692.25 C 1022.28 687.71 1013.69 682.52 1005.25 677.75 C 996.82 672.97 988.13 668.39 980.00 663.00
C 1070.55 658.64 1163.39 655.20 1255.00 657.00
C 1279.39 657.00 1303.91 657.88 1328.00 660.00
C 1343.40 661.35 1361.45 663.12 1376.22 665.78 C 1391.00 668.44 1401.74 675.64 1414.00 681.00
C 1416.76 682.21 1420.98 685.47 1423.77 686.23 C 1426.56 686.99 1430.55 692.37 1433.00 692.00
C 1433.10 692.58 1433.99 690.06 1434.00 690.00
C 1433.02 670.92 1413.27 657.66 1396.97 649.03 C 1380.68 640.40 1350.76 637.82 1332.00 636.00
C 1307.21 633.60 1281.81 634.97 1257.00 633.00
C 1208.70 629.17 1159.02 634.81 1111.00 634.00 C 1062.98 633.19 1015.73 638.35 968.00 639.00
C 978.78 627.21 992.29 619.66 1004.08 609.08 C 1015.87 598.50 1030.03 590.42 1041.70 579.70 C 1053.37 568.97 1071.01 562.43 1075.32 546.32 C 1079.63 530.21 1086.75 510.38 1088.00 494.00
C 1085.46 486.22 1078.26 479.60 1074.00 473.00
C 1067.56 479.88 1067.35 494.81 1062.93 505.93 C 1058.51 517.04 1056.37 531.05 1051.00 542.00
C 1047.31 537.78 1053.77 526.89 1047.00 525.00
C 1047.44 530.18 1047.37 534.52 1048.00 540.00
C 1047.85 538.00 1045.12 539.10 1045.00 539.00
C 1046.03 540.96 1048.05 542.60 1048.00 545.00
C 1033.65 553.80 1021.01 566.64 1007.00 576.00
C 963.21 496.72 882.17 436.00 790.00 436.00
C 783.00 436.00 776.00 436.00 769.00 436.00
C 755.06 436.00 738.39 438.24 725.22 440.22 C 712.05 442.20 700.14 446.43 688.07 450.07 C 676.01 453.71 665.17 458.11 654.23 463.23 C 643.29 468.34 633.92 473.97 624.08 480.08 C 614.23 486.19 605.07 491.98 596.25 499.25 C 587.42 506.51 579.42 513.22 571.25 521.25 C 563.07 529.27 555.97 536.93 548.77 545.77 C 541.57 554.61 535.69 563.58 529.30 573.30 C 522.92 583.03 517.91 592.78 512.77 603.77 C 507.63 614.76 502.88 626.18 499.32 638.32 C 495.76 650.46 492.74 663.86 491.00 677.00 C 489.26 690.14 488.67 708.34 489.02 721.98 C 489.38 735.61 492.11 750.47 495.02 762.98 C 497.94 775.48 502.18 786.74 507.08 797.92 C 511.97 809.11 517.63 818.06 524.08 827.92 C 530.53 837.78 537.49 844.55 545.75 853.25 C 554.01 861.95 561.43 868.08 571.25 874.75 C 581.07 881.42 589.54 887.17 600.92 892.08 C 612.31 896.99 623.90 901.47 636.78 904.22 C 649.66 906.97 664.69 909.28 679.00 909.00 C 693.31 908.72 709.15 908.05 723.00 906.00 C 736.85 903.95 749.15 901.64 762.78 898.78 C 776.40 895.92 789.86 894.70 804.00 893.00 C 818.13 891.30 834.45 891.33 849.00 891.00 C 863.55 890.67 879.47 892.08 893.00 894.00 C 906.53 895.92 920.73 896.99 932.98 901.02 C 945.22 905.06 959.15 905.50 969.98 911.02 C 980.80 916.55 995.43 915.35 1004.00 924.00
M 802.00 655.00 
C 799.18 655.27 795.76 655.27 793.00 655.00
C 776.87 655.00 760.69 647.27 748.75 637.25 C 736.81 627.23 726.54 616.08 720.70 602.31 C 714.85 588.53 704.32 570.05 714.75 557.75 C 725.18 545.46 734.59 536.33 748.23 528.23 C 761.87 520.13 779.75 513.41 796.00 513.00 C 812.26 512.59 830.43 519.15 843.70 527.31 C 856.96 535.46 866.27 546.21 875.92 558.08 C 885.57 569.96 892.79 584.25 899.00 598.00
C 870.24 622.66 840.82 651.60 802.00 655.00 Z"/>
</g>
<g fill="#777878" fill-opacity="1.00" stroke="None">
<path d="
M 1257.00 633.00 
C 1252.09 629.90 1249.26 620.58 1245.25 615.75 C 1241.23 610.93 1238.25 602.64 1233.25 597.75 C 1228.24 592.86 1226.14 584.66 1221.75 579.25 C 1217.35 573.85 1214.11 567.67 1209.75 562.25 C 1205.39 556.83 1202.50 549.32 1198.08 543.92 C 1193.66 538.52 1191.10 530.52 1186.25 525.75 C 1181.39 520.98 1179.99 511.27 1174.00 508.00
C 1164.63 506.35 1153.39 505.74 1144.22 503.78 C 1135.05 501.82 1124.56 501.75 1116.00 499.00 C 1107.44 496.25 1094.96 499.71 1088.00 494.00
C 1086.75 510.38 1079.63 530.21 1075.32 546.32 C 1071.01 562.43 1053.37 568.97 1041.70 579.70 C 1030.03 590.42 1015.87 598.50 1004.08 609.08 C 992.29 619.66 978.78 627.21 968.00 639.00
C 1015.73 638.35 1062.98 633.19 1111.00 634.00 C 1159.02 634.81 1208.70 629.17 1257.00 633.00 Z"/>
</g>
<g fill="#AFAFAE" fill-opacity="1.00" stroke="None">
<path d="
M 1257.00 633.00 
C 1281.81 634.97 1307.21 633.60 1332.00 636.00
C 1325.45 631.27 1324.01 619.11 1317.75 613.25 C 1311.49 607.40 1309.09 597.06 1303.70 590.31 C 1298.30 583.55 1294.50 574.70 1289.08 567.92 C 1283.66 561.14 1280.46 551.67 1274.70 545.30 C 1268.93 538.94 1266.42 527.36 1260.00 522.00
C 1233.06 518.04 1202.26 512.97 1174.00 508.00
C 1179.99 511.27 1181.39 520.98 1186.25 525.75 C 1191.10 530.52 1193.66 538.52 1198.08 543.92 C 1202.50 549.32 1205.39 556.83 1209.75 562.25 C 1214.11 567.67 1217.35 573.85 1221.75 579.25 C 1226.14 584.66 1228.24 592.86 1233.25 597.75 C 1238.25 602.64 1241.23 610.93 1245.25 615.75 C 1249.26 620.58 1252.09 629.90 1257.00 633.00 Z"/>
</g>
<g fill="#F8F8F6" fill-opacity="1.00" stroke="None">
<path d="
M 793.00 655.00 
C 796.00 655.00 799.00 655.00 802.00 655.00
C 840.82 651.60 870.24 622.66 899.00 598.00
C 892.79 584.25 885.57 569.96 875.92 558.08 C 866.27 546.21 856.96 535.46 843.70 527.31 C 830.43 519.15 812.26 512.59 796.00 513.00 C 779.75 513.41 761.87 520.13 748.23 528.23 C 734.59 536.33 725.18 545.46 714.75 557.75 C 704.32 570.05 714.85 588.53 720.70 602.31 C 726.54 616.08 736.81 627.23 748.75 637.25 C 760.69 647.27 776.87 655.00 793.00 655.00
M 760.00 619.00 
C 756.99 616.63 754.43 613.84 752.00 611.00
C 743.54 601.10 740.48 592.69 736.68 580.32 C 732.88 567.96 744.42 561.27 753.75 553.75 C 763.07 546.22 773.99 542.40 786.01 540.01 C 798.03 537.61 813.55 541.27 823.75 547.25 C 833.94 553.24 841.46 558.78 849.25 567.75 C 857.04 576.73 863.10 585.00 869.00 595.00
C 842.19 625.08 795.21 649.39 760.00 619.00 Z"/>
</g>
<g fill="#2E2E2E" fill-opacity="1.00" stroke="None">
<path d="
M 1332.00 636.00 
C 1350.76 637.82 1380.68 640.40 1396.97 649.03 C 1413.27 657.66 1433.02 670.92 1434.00 690.00
C 1434.64 684.85 1434.87 677.48 1435.00 673.00
C 1432.03 629.37 1416.11 592.39 1381.75 563.25 C 1347.39 534.11 1303.08 528.33 1260.00 522.00
C 1266.42 527.36 1268.93 538.94 1274.70 545.30 C 1280.46 551.67 1283.66 561.14 1289.08 567.92 C 1294.50 574.70 1298.30 583.55 1303.70 590.31 C 1309.09 597.06 1311.49 607.40 1317.75 613.25 C 1324.01 619.11 1325.45 631.27 1332.00 636.00 Z"/>
</g>
<g fill="#071616" fill-opacity="1.00" stroke="None">
<path d="
M 752.00 611.00 
C 754.53 613.53 757.44 616.63 760.00 619.00
C 795.21 649.39 842.19 625.08 869.00 595.00
C 863.10 585.00 857.04 576.73 849.25 567.75 C 841.46 558.78 833.94 553.24 823.75 547.25 C 813.55 541.27 798.03 537.61 786.01 540.01 C 773.99 542.40 763.07 546.22 753.75 553.75 C 744.42 561.27 732.88 567.96 736.68 580.32 C 740.48 592.69 743.54 601.10 752.00 611.00
M 818.00 549.00 
C 838.26 552.81 832.08 585.41 811.00 581.00 C 789.91 576.59 797.95 545.23 818.00 549.00 Z"/>
</g>
<g fill="#F4F5F3" fill-opacity="1.00" stroke="None">
<path d="
M 818.00 549.00 
C 797.95 545.23 789.91 576.59 811.00 581.00 C 832.08 585.41 838.26 552.81 818.00 549.00 Z"/>
</g>
<g fill="#717375" fill-opacity="1.00" stroke="None">
<path d="
M 760.00 619.00 
C 757.44 616.63 754.53 613.53 752.00 611.00
C 754.43 613.84 756.99 616.63 760.00 619.00 Z"/>
</g>
<g fill="#606365" fill-opacity="1.00" stroke="None">
<path d="
M 802.00 655.00 
C 799.00 655.00 796.00 655.00 793.00 655.00
C 795.76 655.27 799.18 655.27 802.00 655.00 Z"/>
</g>
<g fill="#777777" fill-opacity="1.00" stroke="None">
<path d="
M 1130.00 751.00 
C 1137.54 746.16 1150.61 750.38 1159.99 747.99 C 1169.37 745.60 1182.19 746.63 1192.00 745.00
C 1198.12 742.51 1199.50 731.93 1204.75 727.75 C 1210.00 723.57 1212.74 715.46 1217.30 710.30 C 1221.87 705.14 1226.09 698.73 1229.77 692.77 C 1233.45 686.81 1238.62 681.63 1242.75 675.75 C 1246.89 669.88 1251.85 663.38 1255.00 657.00
C 1163.39 655.20 1070.55 658.64 980.00 663.00
C 988.13 668.39 996.82 672.97 1005.25 677.75 C 1013.69 682.52 1022.28 687.71 1030.75 692.25 C 1039.23 696.78 1046.22 703.03 1054.92 707.08 C 1063.63 711.12 1071.80 717.44 1080.31 721.70 C 1088.81 725.95 1097.19 732.72 1105.77 736.23 C 1114.35 739.74 1121.69 748.71 1130.00 751.00 Z"/>
</g>
<g fill="#AEAEAD" fill-opacity="1.00" stroke="None">
<path d="
M 1192.00 745.00 
C 1218.10 740.68 1247.93 739.62 1275.00 737.00
C 1273.34 736.86 1271.66 737.10 1270.00 737.00
C 1289.70 711.49 1308.99 685.89 1328.00 660.00
C 1303.91 657.88 1279.39 657.00 1255.00 657.00
C 1251.85 663.38 1246.89 669.88 1242.75 675.75 C 1238.62 681.63 1233.45 686.81 1229.77 692.77 C 1226.09 698.73 1221.87 705.14 1217.30 710.30 C 1212.74 715.46 1210.00 723.57 1204.75 727.75 C 1199.50 731.93 1198.12 742.51 1192.00 745.00 Z"/>
</g>
<g fill="#2D2E2D" fill-opacity="1.00" stroke="None">
<path d="
M 1275.00 737.00 
C 1283.30 736.20 1292.75 735.85 1300.78 734.78 C 1308.81 733.70 1316.59 732.17 1323.99 729.99 C 1331.39 727.81 1338.51 726.12 1345.31 723.31 C 1352.10 720.49 1358.56 717.92 1364.77 714.77 C 1370.98 711.62 1376.83 707.69 1382.75 704.75 C 1388.67 701.82 1393.49 695.50 1399.25 693.25 C 1405.01 690.99 1408.17 681.64 1414.00 681.00
C 1401.74 675.64 1391.00 668.44 1376.22 665.78 C 1361.45 663.12 1343.40 661.35 1328.00 660.00
C 1308.99 685.89 1289.70 711.49 1270.00 737.00
C 1271.66 737.10 1273.34 736.86 1275.00 737.00 Z"/>
</g>
<g fill="#464E52" fill-opacity="1.00" stroke="None">
<path d="
M 1434.00 690.00 
C 1433.99 690.06 1433.10 692.58 1433.00 692.00
C 1433.46 694.56 1436.04 686.55 1435.00 684.00 C 1433.96 681.45 1435.20 675.87 1435.00 673.00
C 1434.87 677.48 1434.64 684.85 1434.00 690.00 Z"/>
</g>
<g fill="#FEFEFD" fill-opacity="1.00" stroke="None">
<path d="
M 0.00 1600.00 
L 1600.00 1600.00
L 1600.00 843.00
C 1596.03 889.22 1589.27 945.16 1577.93 988.93 C 1566.59 1032.70 1553.71 1075.08 1536.78 1114.78 C 1519.85 1154.47 1500.95 1188.77 1479.31 1224.31 C 1457.66 1259.84 1433.81 1288.30 1408.30 1319.30 C 1382.80 1350.31 1355.23 1376.59 1325.08 1403.08 C 1294.93 1429.58 1263.96 1453.62 1229.75 1474.75 C 1195.53 1495.88 1158.43 1517.84 1121.00 1533.00
C 1122.26 1512.40 1122.38 1490.68 1123.00 1470.00 C 1123.62 1449.32 1121.80 1428.16 1121.00 1408.00 C 1120.20 1387.84 1118.35 1366.62 1117.00 1347.00 C 1115.65 1327.39 1110.94 1310.05 1108.00 1292.00
C 1098.43 1287.96 1085.48 1290.96 1075.00 1289.00 C 1064.51 1287.04 1050.24 1289.36 1039.78 1289.78 C 1029.32 1290.19 1017.12 1291.39 1006.99 1292.99 C 996.86 1294.59 986.00 1296.91 976.32 1299.32 C 966.64 1301.74 958.06 1305.22 948.78 1307.78 C 939.49 1310.34 931.54 1314.51 922.77 1317.77 C 914.00 1321.03 905.23 1324.80 897.30 1329.30 C 889.37 1333.80 881.80 1337.51 874.31 1342.31 C 866.81 1347.10 859.81 1351.47 852.75 1356.75 C 845.70 1362.04 837.73 1366.36 831.00 1372.00
C 824.13 1377.75 816.62 1383.88 810.00 1390.00
C 772.61 1424.57 738.65 1465.69 716.00 1510.00
C 707.39 1526.84 698.91 1544.29 691.00 1561.00
C 686.63 1570.23 682.75 1580.22 680.00 1590.00
C 670.14 1590.74 661.39 1587.22 652.00 1586.00
C 643.88 1584.60 635.96 1582.94 628.00 1581.00
C 594.31 1572.79 560.71 1564.63 528.00 1553.00
C 576.68 1383.28 716.71 1232.42 886.00 1178.00
C 893.76 1175.24 901.85 1172.05 910.00 1170.00
C 934.06 1163.95 958.27 1161.02 983.00 1157.00
C 991.19 1155.67 1001.39 1155.68 1010.00 1155.00
C 1030.28 1153.39 1054.14 1153.16 1074.00 1156.00
C 1075.33 1156.00 1076.67 1156.00 1078.00 1156.00
C 1071.16 1120.97 1055.84 1088.00 1041.00 1056.00
C 1039.33 1057.59 1033.21 1055.12 1032.00 1055.00
C 991.91 1055.00 942.96 1056.24 906.07 1064.07 C 869.18 1071.91 836.06 1081.92 803.03 1095.03 C 769.99 1108.14 743.36 1122.35 714.23 1140.23 C 685.09 1158.11 663.93 1175.85 638.00 1198.00
C 634.02 1201.98 630.26 1206.36 626.00 1210.00
C 536.43 1294.70 480.13 1405.88 460.00 1524.00
C 414.35 1503.48 370.74 1477.69 330.00 1448.00
C 322.83 1442.77 315.71 1437.51 309.00 1432.00
C 293.10 1418.94 277.62 1404.36 261.00 1392.00
C 257.18 1389.16 254.26 1385.26 251.00 1382.00
C 247.76 1379.23 244.94 1375.94 242.00 1373.00
C 219.32 1350.32 198.23 1325.88 177.00 1302.00
C 170.18 1294.33 164.37 1286.07 158.00 1278.00
C 142.90 1258.88 129.61 1237.84 118.00 1217.00
C 102.32 1188.87 84.83 1163.80 72.26 1133.74 C 59.68 1103.69 47.59 1075.77 37.78 1042.22 C 27.97 1008.68 18.25 974.68 11.99 939.01 C 5.73 903.33 2.12 859.96 0.00 823.00
L 0.00 1600.00 Z"/>
</g>
<g fill="#88ABAA" fill-opacity="1.00" stroke="None">
<path d="
M 242.00 841.00 
C 242.00 840.96 243.00 841.00 243.00 841.00
C 243.00 838.67 243.00 836.33 243.00 834.00
C 242.84 835.70 242.05 838.59 242.00 841.00 Z"/>
</g>
<g fill="#567778" fill-opacity="1.00" stroke="None">
<path d="
M 242.00 852.00 
C 242.29 848.99 243.00 844.75 243.00 841.00
C 243.00 841.00 242.00 840.96 242.00 841.00
C 241.93 844.66 242.00 848.34 242.00 852.00 Z"/>
</g>
<g fill="#4F7877" fill-opacity="1.00" stroke="None">
<path d="
M 241.00 885.00 
C 241.16 883.30 241.95 880.41 242.00 878.00
C 241.84 879.70 241.05 882.59 241.00 885.00 Z"/>
</g>
<g fill="#768385" fill-opacity="1.00" stroke="None">
<path d="
M 427.00 941.00 
C 423.13 937.13 418.92 932.92 415.00 929.00
C 418.62 933.24 422.71 937.34 427.00 941.00 Z"/>
</g>
<g fill="#7E9493" fill-opacity="1.00" stroke="None">
<path d="
M 1032.00 1055.00 
C 1033.21 1055.12 1039.33 1057.59 1041.00 1056.00
C 1040.76 1055.47 1040.14 1054.34 1040.00 1054.00
C 1039.15 1053.83 1033.88 1055.00 1032.00 1055.00 Z"/>
</g>
<g fill="#42948E" fill-opacity="1.00" stroke="None">
<path d="
M 158.00 1278.00 
C 164.37 1286.07 170.18 1294.33 177.00 1302.00
C 178.49 1299.16 189.71 1298.74 192.70 1292.70 C 195.68 1286.65 200.14 1283.07 203.70 1277.70 C 207.26 1272.33 210.66 1267.45 214.25 1262.25 C 217.83 1257.05 222.36 1252.99 225.70 1247.70 C 229.04 1242.40 233.38 1237.15 237.08 1232.08 C 240.78 1227.02 244.34 1222.09 248.08 1217.08 C 251.82 1212.08 255.34 1207.11 259.23 1202.23 C 263.12 1197.35 265.79 1191.66 270.08 1187.08 C 274.38 1182.51 276.86 1175.61 281.26 1171.26 C 285.65 1166.90 297.80 1174.61 303.93 1171.93 C 310.05 1169.25 316.82 1168.84 321.75 1163.75 C 326.69 1158.67 330.08 1155.39 333.23 1149.23 C 336.38 1143.07 338.41 1133.21 336.93 1126.07 C 335.45 1118.93 332.90 1113.78 328.92 1108.08 C 324.94 1102.38 320.65 1099.51 314.69 1096.31 C 308.74 1093.10 299.05 1091.99 292.02 1093.02 C 285.00 1094.06 278.18 1096.22 272.75 1100.75 C 267.32 1105.28 264.48 1109.11 261.31 1115.31 C 258.13 1121.50 257.28 1129.09 258.00 1136.00 C 258.72 1142.91 260.45 1149.87 264.00 1156.00
C 257.33 1164.23 250.43 1173.27 243.92 1181.92 C 237.41 1190.57 230.81 1199.70 224.30 1208.30 C 217.79 1216.90 211.60 1226.82 205.25 1235.25 C 198.90 1243.67 190.83 1253.19 185.75 1261.75 C 180.68 1270.32 168.52 1283.66 158.00 1278.00
M 302.00 1116.00 
C 321.43 1120.81 312.84 1153.13 293.00 1147.00 C 273.16 1140.87 282.34 1111.13 302.00 1116.00 Z"/>
</g>
<g fill="#072C30" fill-opacity="1.00" stroke="None">
<path d="
M 302.00 1116.00 
C 282.34 1111.13 273.16 1140.87 293.00 1147.00 C 312.84 1153.13 321.43 1120.81 302.00 1116.00 Z"/>
</g>
<g fill="#42938D" fill-opacity="1.00" stroke="None">
<path d="
M 242.00 1373.00 
C 244.94 1375.94 247.76 1379.23 251.00 1382.00
C 253.92 1384.50 257.44 1387.25 260.00 1390.00
C 301.82 1334.03 343.47 1277.45 385.00 1221.00
C 392.69 1224.57 401.43 1223.83 409.33 1222.33 C 417.23 1220.83 421.97 1217.34 427.75 1211.75 C 433.53 1206.17 436.39 1200.73 438.07 1193.07 C 439.76 1185.42 439.37 1174.95 435.92 1168.08 C 432.48 1161.20 429.39 1156.77 423.23 1151.77 C 417.07 1146.77 409.87 1145.06 402.00 1144.00 C 394.13 1142.94 385.92 1145.51 379.23 1149.23 C 372.54 1152.95 369.40 1157.59 364.92 1163.92 C 360.44 1170.25 359.90 1179.35 359.01 1186.99 C 358.12 1194.63 366.76 1202.00 365.25 1208.25 C 363.74 1214.51 355.59 1218.85 352.77 1224.77 C 349.95 1230.69 343.96 1235.69 340.30 1241.30 C 336.64 1246.92 332.12 1252.72 328.25 1258.25 C 324.38 1263.78 319.95 1268.61 316.25 1274.25 C 312.55 1279.89 307.62 1285.24 303.92 1290.92 C 300.21 1296.59 295.50 1302.16 291.75 1307.75 C 288.01 1313.35 283.09 1318.95 279.25 1324.25 C 275.41 1329.55 270.95 1336.17 266.92 1340.92 C 262.89 1345.67 259.19 1354.28 254.75 1357.75 C 250.32 1361.23 247.75 1373.00 242.00 1373.00
M 405.00 1168.00 
C 423.38 1172.28 413.59 1206.88 394.33 1198.67 C 375.07 1190.46 384.97 1163.34 405.00 1168.00 Z"/>
</g>
<g fill="#40948E" fill-opacity="1.00" stroke="None">
<path d="
M 983.00 1157.00 
C 983.93 1157.26 985.06 1156.80 986.00 1157.00
C 985.86 1166.98 986.19 1175.91 986.00 1186.00 C 985.81 1196.09 986.35 1205.66 986.00 1216.00 C 985.65 1226.34 986.77 1234.04 986.00 1245.00 C 985.23 1255.96 1000.86 1251.14 1009.00 1252.00
C 1009.74 1241.83 1008.01 1230.01 1009.00 1220.00 C 1009.99 1209.99 1007.11 1197.41 1009.00 1188.00 C 1010.89 1178.59 1004.61 1163.27 1010.00 1156.00
C 1010.00 1155.50 1010.00 1155.00 1010.00 1155.00
C 1001.39 1155.68 991.19 1155.67 983.00 1157.00 Z"/>
</g>
<g fill="#061615" fill-opacity="1.00" stroke="None">
<path d="
M 1010.00 1156.00 
C 1010.00 1162.26 1010.09 1168.76 1010.00 1175.00 C 1009.91 1181.24 1010.23 1187.84 1010.00 1194.00 C 1009.77 1200.16 1010.50 1208.14 1010.00 1214.00 C 1009.50 1219.86 1011.16 1227.95 1010.00 1233.00 C 1008.84 1238.05 1012.93 1249.25 1009.00 1252.00
C 1000.86 1251.14 985.23 1255.96 986.00 1245.00 C 986.77 1234.04 985.65 1226.34 986.00 1216.00 C 986.35 1205.66 985.81 1196.09 986.00 1186.00 C 986.19 1175.91 985.86 1166.98 986.00 1157.00
C 985.06 1156.80 983.93 1157.26 983.00 1157.00
C 958.27 1161.02 934.06 1163.95 910.00 1170.00
C 905.31 1174.30 910.44 1186.60 909.00 1193.00 C 907.56 1199.40 909.62 1209.87 909.00 1217.00 C 908.38 1224.13 909.22 1233.73 909.00 1241.00 C 908.78 1248.27 908.97 1258.07 909.00 1265.00 C 909.03 1271.93 908.86 1278.96 901.92 1281.92 C 894.97 1284.87 886.73 1282.36 879.00 1283.00 C 871.27 1283.64 862.98 1282.68 855.00 1283.00 C 847.02 1283.32 838.07 1282.76 830.00 1283.00
C 830.42 1312.65 829.01 1342.75 831.00 1372.00
C 837.73 1366.36 845.70 1362.04 852.75 1356.75 C 859.81 1351.47 866.81 1347.10 874.31 1342.31 C 881.80 1337.51 889.37 1333.80 897.30 1329.30 C 905.23 1324.80 914.00 1321.03 922.77 1317.77 C 931.54 1314.51 939.49 1310.34 948.78 1307.78 C 958.06 1305.22 966.64 1301.74 976.32 1299.32 C 986.00 1296.91 996.86 1294.59 1006.99 1292.99 C 1017.12 1291.39 1029.32 1290.19 1039.78 1289.78 C 1050.24 1289.36 1064.51 1287.04 1075.00 1289.00 C 1085.48 1290.96 1098.43 1287.96 1108.00 1292.00
C 1105.41 1246.64 1092.63 1200.62 1079.00 1157.00
C 1077.26 1157.91 1075.06 1156.15 1074.00 1156.00
C 1054.14 1153.16 1030.28 1153.39 1010.00 1155.00
C 1010.00 1155.00 1010.00 1155.50 1010.00 1156.00 Z"/>
</g>
<g fill="#174A46" fill-opacity="1.00" stroke="None">
<path d="
M 1009.00 1252.00 
C 1012.93 1249.25 1008.84 1238.05 1010.00 1233.00 C 1011.16 1227.95 1009.50 1219.86 1010.00 1214.00 C 1010.50 1208.14 1009.77 1200.16 1010.00 1194.00 C 1010.23 1187.84 1009.91 1181.24 1010.00 1175.00 C 1010.09 1168.76 1010.00 1162.26 1010.00 1156.00
C 1004.61 1163.27 1010.89 1178.59 1009.00 1188.00 C 1007.11 1197.41 1009.99 1209.99 1009.00 1220.00 C 1008.01 1230.01 1009.74 1241.83 1009.00 1252.00 Z"/>
</g>
<g fill="#072C2F" fill-opacity="1.00" stroke="None">
<path d="
M 405.00 1168.00 
C 384.97 1163.34 375.07 1190.46 394.33 1198.67 C 413.59 1206.88 423.38 1172.28 405.00 1168.00 Z"/>
</g>
<g fill="#41938D" fill-opacity="1.00" stroke="None">
<path d="
M 886.00 1178.00 
C 884.92 1179.97 886.00 1185.69 886.00 1188.00
C 886.00 1211.34 888.10 1235.77 886.00 1259.00
C 881.65 1263.50 870.58 1258.52 864.00 1260.00 C 857.42 1261.48 847.21 1258.95 840.00 1260.00 C 832.79 1261.05 823.31 1258.69 816.00 1260.00
C 798.35 1265.58 807.96 1292.38 806.00 1308.00 C 804.04 1323.62 807.47 1349.45 806.00 1366.00
C 788.57 1366.66 772.57 1365.12 755.00 1366.00 C 737.43 1366.88 720.97 1364.33 703.00 1366.00 C 685.03 1367.67 691.68 1391.12 691.00 1406.00 C 690.32 1420.88 691.31 1440.84 691.00 1457.00 C 690.69 1473.16 691.16 1492.28 691.00 1509.00 C 690.84 1525.72 691.12 1544.13 691.00 1561.00
C 698.91 1544.29 707.39 1526.84 716.00 1510.00
C 715.88 1510.22 715.00 1510.00 715.00 1510.00
C 711.15 1506.27 714.98 1496.72 714.00 1491.00 C 713.02 1485.28 714.38 1476.21 714.00 1470.00 C 713.62 1463.79 713.96 1456.31 714.00 1450.00 C 714.04 1443.69 713.57 1435.07 714.00 1429.00 C 714.43 1422.93 712.82 1414.24 714.00 1409.00 C 715.18 1403.76 710.95 1391.83 715.00 1389.00
C 719.69 1385.72 730.05 1390.47 736.00 1389.00 C 741.95 1387.53 750.49 1389.64 757.00 1389.00 C 763.51 1388.36 771.26 1389.24 778.00 1389.00 C 784.74 1388.76 792.19 1389.00 799.00 1389.00
C 801.87 1389.00 808.16 1390.32 810.00 1390.00
C 816.62 1383.88 824.13 1377.75 831.00 1372.00
C 829.01 1342.75 830.42 1312.65 830.00 1283.00
C 838.07 1282.76 847.02 1283.32 855.00 1283.00 C 862.98 1282.68 871.27 1283.64 879.00 1283.00 C 886.73 1282.36 894.97 1284.87 901.92 1281.92 C 908.86 1278.96 909.03 1271.93 909.00 1265.00 C 908.97 1258.07 908.78 1248.27 909.00 1241.00 C 909.22 1233.73 908.38 1224.13 909.00 1217.00 C 909.62 1209.87 907.56 1199.40 909.00 1193.00 C 910.44 1186.60 905.31 1174.30 910.00 1170.00
C 901.85 1172.05 893.76 1175.24 886.00 1178.00 Z"/>
</g>
<g fill="#061615" fill-opacity="1.00" stroke="None">
<path d="
M 628.00 1581.00 
C 627.88 1565.36 628.16 1547.40 628.00 1532.00 C 627.84 1516.60 631.36 1500.44 620.75 1490.25 C 610.14 1480.06 615.64 1462.46 626.08 1455.08 C 636.52 1447.71 653.35 1450.47 659.92 1462.08 C 666.50 1473.68 664.17 1489.24 652.00 1496.00
C 652.00 1526.00 652.00 1556.00 652.00 1586.00
C 661.39 1587.22 670.14 1590.74 680.00 1590.00
C 682.75 1580.22 686.63 1570.23 691.00 1561.00
C 691.12 1544.13 690.84 1525.72 691.00 1509.00 C 691.16 1492.28 690.69 1473.16 691.00 1457.00 C 691.31 1440.84 690.32 1420.88 691.00 1406.00 C 691.68 1391.12 685.03 1367.67 703.00 1366.00 C 720.97 1364.33 737.43 1366.88 755.00 1366.00 C 772.57 1365.12 788.57 1366.66 806.00 1366.00
C 807.47 1349.45 804.04 1323.62 806.00 1308.00 C 807.96 1292.38 798.35 1265.58 816.00 1260.00
C 826.15 1256.79 838.81 1259.66 850.00 1259.00 C 861.19 1258.34 873.69 1259.00 885.00 1259.00
C 882.95 1236.33 883.88 1209.88 886.00 1188.00
C 886.00 1185.69 884.92 1179.97 886.00 1178.00
C 716.71 1232.42 576.68 1383.28 528.00 1553.00
C 560.71 1564.63 594.31 1572.79 628.00 1581.00 Z"/>
</g>
<g fill="#21544F" fill-opacity="1.00" stroke="None">
<path d="
M 885.00 1259.00 
C 885.50 1259.00 886.00 1259.00 886.00 1259.00
C 888.10 1235.77 886.00 1211.34 886.00 1188.00
C 883.88 1209.88 882.95 1236.33 885.00 1259.00 Z"/>
</g>
<g fill="#869391" fill-opacity="1.00" stroke="None">
<path d="
M 626.00 1210.00 
C 630.26 1206.36 634.02 1201.98 638.00 1198.00
C 633.74 1201.64 629.97 1206.02 626.00 1210.00 Z"/>
</g>
<g fill="#417B78" fill-opacity="1.00" stroke="None">
<path d="
M 816.00 1260.00 
C 823.31 1258.69 832.79 1261.05 840.00 1260.00 C 847.21 1258.95 857.42 1261.48 864.00 1260.00 C 870.58 1258.52 881.65 1263.50 886.00 1259.00
C 886.00 1259.00 885.50 1259.00 885.00 1259.00
C 873.69 1259.00 861.19 1258.34 850.00 1259.00 C 838.81 1259.66 826.15 1256.79 816.00 1260.00 Z"/>
</g>
<g fill="#44938E" fill-opacity="1.00" stroke="None">
<path d="
M 309.00 1432.00 
C 315.71 1437.51 322.83 1442.77 330.00 1448.00
C 326.88 1442.04 340.61 1432.03 343.75 1425.75 C 346.89 1419.46 355.01 1411.00 359.25 1404.25 C 363.49 1397.49 370.39 1390.14 375.23 1383.23 C 380.07 1376.32 385.38 1368.55 390.70 1361.70 C 396.01 1354.84 412.40 1363.03 420.92 1358.92 C 429.45 1354.81 437.10 1350.49 442.08 1342.08 C 447.05 1333.66 449.47 1321.44 446.93 1312.07 C 444.38 1302.71 440.43 1295.56 432.75 1289.25 C 425.07 1282.94 415.23 1279.56 405.01 1280.01 C 394.78 1280.46 388.08 1285.33 380.25 1292.25 C 372.42 1299.17 370.15 1308.97 369.00 1319.00 C 367.85 1329.03 376.70 1339.60 372.25 1347.25 C 367.79 1354.90 361.22 1360.98 356.30 1368.30 C 351.39 1375.63 345.61 1382.41 340.75 1389.75 C 335.90 1397.09 330.19 1403.81 324.77 1410.77 C 319.35 1417.73 315.09 1425.72 309.00 1432.00
M 413.00 1305.00 
C 432.15 1308.97 423.68 1342.99 404.33 1336.67 C 384.98 1330.35 392.14 1300.68 413.00 1305.00 Z"/>
</g>
<g fill="#082C2E" fill-opacity="1.00" stroke="None">
<path d="
M 413.00 1305.00 
C 392.14 1300.68 384.98 1330.35 404.33 1336.67 C 423.68 1342.99 432.15 1308.97 413.00 1305.00 Z"/>
</g>
<g fill="#83B4AE" fill-opacity="1.00" stroke="None">
<path d="
M 261.00 1392.00 
C 260.60 1391.56 260.46 1390.50 260.00 1390.00
C 257.44 1387.25 253.92 1384.50 251.00 1382.00
C 254.26 1385.26 257.18 1389.16 261.00 1392.00 Z"/>
</g>
<g fill="#31635D" fill-opacity="1.00" stroke="None">
<path d="
M 715.00 1510.00 
C 714.73 1507.06 715.00 1503.96 715.00 1501.00
C 715.00 1467.00 715.01 1433.00 715.00 1399.00
C 715.00 1397.00 715.00 1395.00 715.00 1393.00
C 715.00 1391.67 715.00 1390.33 715.00 1389.00
C 710.95 1391.83 715.18 1403.76 714.00 1409.00 C 712.82 1414.24 714.43 1422.93 714.00 1429.00 C 713.57 1435.07 714.04 1443.69 714.00 1450.00 C 713.96 1456.31 713.62 1463.79 714.00 1470.00 C 714.38 1476.21 713.02 1485.28 714.00 1491.00 C 714.98 1496.72 711.15 1506.27 715.00 1510.00 Z"/>
</g>
<g fill="#02201D" fill-opacity="1.00" stroke="None">
<path d="
M 715.00 1393.00 
C 716.19 1390.96 720.25 1392.55 722.00 1392.00
C 717.30 1388.97 732.39 1388.41 732.00 1393.00
C 736.39 1389.96 743.14 1393.79 749.08 1392.93 C 755.02 1392.08 761.28 1392.83 768.00 1393.00
C 763.58 1396.79 771.67 1394.02 773.00 1396.00
C 776.05 1393.09 769.46 1395.04 769.00 1393.00
C 780.82 1393.82 787.99 1389.99 799.00 1389.00
C 792.19 1389.00 784.74 1388.76 778.00 1389.00 C 771.26 1389.24 763.51 1388.36 757.00 1389.00 C 750.49 1389.64 741.95 1387.53 736.00 1389.00 C 730.05 1390.47 719.69 1385.72 715.00 1389.00
C 715.00 1390.33 715.00 1391.67 715.00 1393.00 Z"/>
</g>
<g fill="#061514" fill-opacity="1.00" stroke="None">
<path d="
M 715.00 1393.00 
C 715.00 1395.00 715.00 1397.00 715.00 1399.00
C 718.18 1431.81 718.31 1466.81 715.00 1501.00
C 715.00 1503.96 714.73 1507.06 715.00 1510.00
C 715.00 1510.00 715.88 1510.22 716.00 1510.00
C 738.65 1465.69 772.61 1424.57 810.00 1390.00
C 808.16 1390.32 801.87 1389.00 799.00 1389.00
C 787.99 1389.99 780.82 1393.82 769.00 1393.00
C 769.46 1395.04 776.05 1393.09 773.00 1396.00
C 771.67 1394.02 763.58 1396.79 768.00 1393.00
C 761.28 1392.83 755.02 1392.08 749.08 1392.93 C 743.14 1393.79 736.39 1389.96 732.00 1393.00
C 732.39 1388.41 717.30 1388.97 722.00 1392.00
C 720.25 1392.55 716.19 1390.96 715.00 1393.00 Z"/>
</g>
<g fill="#011F1B" fill-opacity="1.00" stroke="None">
<path d="
M 715.00 1501.00 
C 718.31 1466.81 718.18 1431.81 715.00 1399.00
C 715.01 1433.00 715.00 1467.00 715.00 1501.00 Z"/>
</g>
<g fill="#41918B" fill-opacity="1.00" stroke="None">
<path d="
M 628.00 1581.00 
C 635.96 1582.94 643.88 1584.60 652.00 1586.00
C 652.00 1556.00 652.00 1526.00 652.00 1496.00
C 664.17 1489.24 666.50 1473.68 659.92 1462.08 C 653.35 1450.47 636.52 1447.71 626.08 1455.08 C 615.64 1462.46 610.14 1480.06 620.75 1490.25 C 631.36 1500.44 627.84 1516.60 628.00 1532.00 C 628.16 1547.40 627.88 1565.36 628.00 1581.00 Z"/>
</g>
</svg>