<svg xmlns="http://www.w3.org/2000/svg" xmlns:v="https://svgstorm.com"
viewBox = "0 0 600 600"
width="600"
height="600">
<g fill="None" fill-opacity="0.0" stroke="#F5F5F5" stroke-opacity="1.00" stroke-width="0.3"><path d="
M 0.00 600.00 
L 600.00 600.00
L 600.00 0.00
L 0.00 0.00
L 0.00 600.00
M 325.00 21.00 
C 387.05 21.00 445.26 51.77 491.00 92.00
C 467.00 120.03 438.64 145.82 413.00 173.00
C 373.59 131.75 304.90 122.46 253.78 139.78 C 202.65 157.09 167.21 197.40 149.00 246.00
C 138.78 281.12 138.77 318.86 149.00 354.00
C 157.96 384.77 177.28 409.36 202.70 431.30 C 228.12 453.24 261.04 466.74 296.01 468.99 C 330.98 471.24 371.80 461.42 401.00 442.00
C 430.20 422.58 449.82 390.25 456.00 357.00
C 405.67 357.00 355.33 357.00 305.00 357.00
C 304.87 343.73 305.17 330.25 305.00 317.00 C 304.83 303.75 305.33 290.18 305.00 277.00 C 304.67 263.82 301.38 247.02 317.00 249.00 C 332.62 250.98 342.62 248.13 357.00 249.00 C 371.38 249.87 383.15 248.66 397.00 249.00 C 410.85 249.34 423.33 248.97 437.00 249.00 C 450.67 249.03 463.28 249.25 477.00 249.00 C 490.72 248.75 502.98 249.71 517.00 249.00 C 531.02 248.29 543.37 250.58 558.00 249.00 C 572.63 247.42 570.20 263.75 571.33 275.67 C 572.46 287.59 573.64 301.81 573.00 314.00 C 572.36 326.19 571.61 339.44 570.00 351.00 C 568.39 362.57 566.59 374.24 564.01 385.01 C 561.43 395.78 557.54 405.24 554.22 415.22 C 550.90 425.20 546.31 433.86 542.08 443.08 C 537.84 452.29 532.54 460.01 527.25 468.25 C 521.95 476.49 516.36 483.71 510.25 491.25 C 504.14 498.79 497.32 505.61 490.00 512.00
C 448.09 553.91 396.01 570.37 338.33 578.33 C 280.65 586.29 209.01 569.60 161.30 539.70 C 113.60 509.79 81.80 473.52 57.00 425.00
C 17.21 347.15 18.38 253.10 57.00 175.00
C 71.98 144.71 89.18 119.41 115.25 95.25 C 141.31 71.09 165.80 56.14 199.08 41.08 C 232.35 26.01 278.42 20.00 317.00 20.00
C 319.77 20.00 322.96 20.80 325.00 21.00 Z"/>
</g>
<g fill="None" fill-opacity="0.0" stroke="#E63C2F" stroke-opacity="1.00" stroke-width="0.3"><path d="
M 57.00 175.00 
C 60.85 174.13 66.32 183.03 70.25 184.75 C 74.18 186.48 79.06 192.15 83.23 194.77 C 87.40 197.39 91.85 201.87 96.08 204.92 C 100.31 207.97 105.43 212.31 109.70 215.30 C 113.97 218.30 118.33 222.53 122.25 225.75 C 126.17 228.97 132.25 231.82 135.25 235.75 C 138.24 239.69 147.39 241.66 149.00 246.00
C 167.21 197.40 202.65 157.09 253.78 139.78 C 304.90 122.46 373.59 131.75 413.00 173.00
C 438.64 145.82 467.00 120.03 491.00 92.00
C 445.26 51.77 387.05 21.00 325.00 21.00
C 322.23 21.00 319.04 20.20 317.00 20.00
C 278.42 20.00 232.35 26.01 199.08 41.08 C 165.80 56.14 141.31 71.09 115.25 95.25 C 89.18 119.41 71.98 144.71 57.00 175.00 Z"/>
</g>
<g fill="None" fill-opacity="0.0" stroke="#F1928A" stroke-opacity="1.00" stroke-width="0.3"><path d="
M 325.00 21.00 
C 322.96 20.80 319.77 20.00 317.00 20.00
C 319.04 20.20 322.23 21.00 325.00 21.00 Z"/>
</g>
<g fill="None" fill-opacity="0.0" stroke="#F8B508" stroke-opacity="1.00" stroke-width="0.3"><path d="
M 57.00 425.00 
C 58.25 420.89 67.44 419.13 70.23 415.23 C 73.02 411.33 79.51 408.70 83.23 405.23 C 86.95 401.76 91.87 398.20 96.08 395.08 C 100.29 391.97 105.15 387.56 109.25 384.25 C 113.35 380.94 118.58 377.95 122.25 374.25 C 125.92 370.54 132.32 368.38 135.25 364.25 C 138.17 360.11 147.35 358.45 149.00 354.00
C 138.77 318.86 138.78 281.12 149.00 246.00
C 147.39 241.66 138.24 239.69 135.25 235.75 C 132.25 231.82 126.17 228.97 122.25 225.75 C 118.33 222.53 113.97 218.30 109.70 215.30 C 105.43 212.31 100.31 207.97 96.08 204.92 C 91.85 201.87 87.40 197.39 83.23 194.77 C 79.06 192.15 74.18 186.48 70.25 184.75 C 66.32 183.03 60.85 174.13 57.00 175.00
C 18.38 253.10 17.21 347.15 57.00 425.00 Z"/>
</g>
<g fill="None" fill-opacity="0.0" stroke="#3C7FF2" stroke-opacity="1.00" stroke-width="0.3"><path d="
M 401.00 442.00 
C 400.53 446.02 409.64 448.57 412.75 452.25 C 415.86 455.93 420.89 457.80 425.75 462.25 C 430.61 466.70 431.64 466.56 438.75 472.25 C 445.85 477.95 456.71 486.72 464.08 491.92 C 471.45 497.12 470.94 499.58 476.75 502.25 C 482.57 504.92 484.63 512.32 490.00 512.00
C 497.32 505.61 504.14 498.79 510.25 491.25 C 516.36 483.71 521.95 476.49 527.25 468.25 C 532.54 460.01 537.84 452.29 542.08 443.08 C 546.31 433.86 550.90 425.20 554.22 415.22 C 557.54 405.24 561.43 395.78 564.01 385.01 C 566.59 374.24 568.39 362.57 570.00 351.00 C 571.61 339.44 572.36 326.19 573.00 314.00 C 573.64 301.81 572.46 287.59 571.33 275.67 C 570.20 263.75 572.63 247.42 558.00 249.00 C 543.37 250.58 531.02 248.29 517.00 249.00 C 502.98 249.71 490.72 248.75 477.00 249.00 C 463.28 249.25 450.67 249.03 437.00 249.00 C 423.33 248.97 410.85 249.34 397.00 249.00 C 383.15 248.66 371.38 249.87 357.00 249.00 C 342.62 248.13 332.62 250.98 317.00 249.00 C 301.38 247.02 304.67 263.82 305.00 277.00 C 305.33 290.18 304.83 303.75 305.00 317.00 C 305.17 330.25 304.87 343.73 305.00 357.00
C 355.33 357.00 405.67 357.00 456.00 357.00
C 449.82 390.25 430.20 422.58 401.00 442.00 Z"/>
</g>
<g fill="None" fill-opacity="0.0" stroke="#2EA24B" stroke-opacity="1.00" stroke-width="0.3"><path d="
M 57.00 425.00 
C 81.80 473.52 113.60 509.79 161.30 539.70 C 209.01 569.60 280.65 586.29 338.33 578.33 C 396.01 570.37 448.09 553.91 490.00 512.00
C 484.63 512.32 482.57 504.92 476.75 502.25 C 470.94 499.58 471.45 497.12 464.08 491.92 C 456.71 486.72 445.85 477.95 438.75 472.25 C 431.64 466.56 430.61 466.70 425.75 462.25 C 420.89 457.80 415.86 455.93 412.75 452.25 C 409.64 448.57 400.53 446.02 401.00 442.00
C 371.80 461.42 330.98 471.24 296.01 468.99 C 261.04 466.74 228.12 453.24 202.70 431.30 C 177.28 409.36 157.96 384.77 149.00 354.00
C 147.35 358.45 138.17 360.11 135.25 364.25 C 132.32 368.38 125.92 370.54 122.25 374.25 C 118.58 377.95 113.35 380.94 109.25 384.25 C 105.15 387.56 100.29 391.97 96.08 395.08 C 91.87 398.20 86.95 401.76 83.23 405.23 C 79.51 408.70 73.02 411.33 70.23 415.23 C 67.44 419.13 58.25 420.89 57.00 425.00 Z"/>
</g>
<g fill="#F5F5F5" fill-opacity="1.00" stroke="None">
<path d="
M 0.00 600.00 
L 600.00 600.00
L 600.00 0.00
L 0.00 0.00
L 0.00 600.00
M 325.00 21.00 
C 387.05 21.00 445.26 51.77 491.00 92.00
C 467.00 120.03 438.64 145.82 413.00 173.00
C 373.59 131.75 304.90 122.46 253.78 139.78 C 202.65 157.09 167.21 197.40 149.00 246.00
C 138.78 281.12 138.77 318.86 149.00 354.00
C 157.96 384.77 177.28 409.36 202.70 431.30 C 228.12 453.24 261.04 466.74 296.01 468.99 C 330.98 471.24 371.80 461.42 401.00 442.00
C 430.20 422.58 449.82 390.25 456.00 357.00
C 405.67 357.00 355.33 357.00 305.00 357.00
C 304.87 343.73 305.17 330.25 305.00 317.00 C 304.83 303.75 305.33 290.18 305.00 277.00 C 304.67 263.82 301.38 247.02 317.00 249.00 C 332.62 250.98 342.62 248.13 357.00 249.00 C 371.38 249.87 383.15 248.66 397.00 249.00 C 410.85 249.34 423.33 248.97 437.00 249.00 C 450.67 249.03 463.28 249.25 477.00 249.00 C 490.72 248.75 502.98 249.71 517.00 249.00 C 531.02 248.29 543.37 250.58 558.00 249.00 C 572.63 247.42 570.20 263.75 571.33 275.67 C 572.46 287.59 573.64 301.81 573.00 314.00 C 572.36 326.19 571.61 339.44 570.00 351.00 C 568.39 362.57 566.59 374.24 564.01 385.01 C 561.43 395.78 557.54 405.24 554.22 415.22 C 550.90 425.20 546.31 433.86 542.08 443.08 C 537.84 452.29 532.54 460.01 527.25 468.25 C 521.95 476.49 516.36 483.71 510.25 491.25 C 504.14 498.79 497.32 505.61 490.00 512.00
C 448.09 553.91 396.01 570.37 338.33 578.33 C 280.65 586.29 209.01 569.60 161.30 539.70 C 113.60 509.79 81.80 473.52 57.00 425.00
C 17.21 347.15 18.38 253.10 57.00 175.00
C 71.98 144.71 89.18 119.41 115.25 95.25 C 141.31 71.09 165.80 56.14 199.08 41.08 C 232.35 26.01 278.42 20.00 317.00 20.00
C 319.77 20.00 322.96 20.80 325.00 21.00 Z"/>
</g>
<g fill="#E63C2F" fill-opacity="1.00" stroke="None">
<path d="
M 57.00 175.00 
C 60.85 174.13 66.32 183.03 70.25 184.75 C 74.18 186.48 79.06 192.15 83.23 194.77 C 87.40 197.39 91.85 201.87 96.08 204.92 C 100.31 207.97 105.43 212.31 109.70 215.30 C 113.97 218.30 118.33 222.53 122.25 225.75 C 126.17 228.97 132.25 231.82 135.25 235.75 C 138.24 239.69 147.39 241.66 149.00 246.00
C 167.21 197.40 202.65 157.09 253.78 139.78 C 304.90 122.46 373.59 131.75 413.00 173.00
C 438.64 145.82 467.00 120.03 491.00 92.00
C 445.26 51.77 387.05 21.00 325.00 21.00
C 322.23 21.00 319.04 20.20 317.00 20.00
C 278.42 20.00 232.35 26.01 199.08 41.08 C 165.80 56.14 141.31 71.09 115.25 95.25 C 89.18 119.41 71.98 144.71 57.00 175.00 Z"/>
</g>
<g fill="#F1928A" fill-opacity="1.00" stroke="None">
<path d="
M 325.00 21.00 
C 322.96 20.80 319.77 20.00 317.00 20.00
C 319.04 20.20 322.23 21.00 325.00 21.00 Z"/>
</g>
<g fill="#F8B508" fill-opacity="1.00" stroke="None">
<path d="
M 57.00 425.00 
C 58.25 420.89 67.44 419.13 70.23 415.23 C 73.02 411.33 79.51 408.70 83.23 405.23 C 86.95 401.76 91.87 398.20 96.08 395.08 C 100.29 391.97 105.15 387.56 109.25 384.25 C 113.35 380.94 118.58 377.95 122.25 374.25 C 125.92 370.54 132.32 368.38 135.25 364.25 C 138.17 360.11 147.35 358.45 149.00 354.00
C 138.77 318.86 138.78 281.12 149.00 246.00
C 147.39 241.66 138.24 239.69 135.25 235.75 C 132.25 231.82 126.17 228.97 122.25 225.75 C 118.33 222.53 113.97 218.30 109.70 215.30 C 105.43 212.31 100.31 207.97 96.08 204.92 C 91.85 201.87 87.40 197.39 83.23 194.77 C 79.06 192.15 74.18 186.48 70.25 184.75 C 66.32 183.03 60.85 174.13 57.00 175.00
C 18.38 253.10 17.21 347.15 57.00 425.00 Z"/>
</g>
<g fill="#3C7FF2" fill-opacity="1.00" stroke="None">
<path d="
M 401.00 442.00 
C 400.53 446.02 409.64 448.57 412.75 452.25 C 415.86 455.93 420.89 457.80 425.75 462.25 C 430.61 466.70 431.64 466.56 438.75 472.25 C 445.85 477.95 456.71 486.72 464.08 491.92 C 471.45 497.12 470.94 499.58 476.75 502.25 C 482.57 504.92 484.63 512.32 490.00 512.00
C 497.32 505.61 504.14 498.79 510.25 491.25 C 516.36 483.71 521.95 476.49 527.25 468.25 C 532.54 460.01 537.84 452.29 542.08 443.08 C 546.31 433.86 550.90 425.20 554.22 415.22 C 557.54 405.24 561.43 395.78 564.01 385.01 C 566.59 374.24 568.39 362.57 570.00 351.00 C 571.61 339.44 572.36 326.19 573.00 314.00 C 573.64 301.81 572.46 287.59 571.33 275.67 C 570.20 263.75 572.63 247.42 558.00 249.00 C 543.37 250.58 531.02 248.29 517.00 249.00 C 502.98 249.71 490.72 248.75 477.00 249.00 C 463.28 249.25 450.67 249.03 437.00 249.00 C 423.33 248.97 410.85 249.34 397.00 249.00 C 383.15 248.66 371.38 249.87 357.00 249.00 C 342.62 248.13 332.62 250.98 317.00 249.00 C 301.38 247.02 304.67 263.82 305.00 277.00 C 305.33 290.18 304.83 303.75 305.00 317.00 C 305.17 330.25 304.87 343.73 305.00 357.00
C 355.33 357.00 405.67 357.00 456.00 357.00
C 449.82 390.25 430.20 422.58 401.00 442.00 Z"/>
</g>
<g fill="#2EA24B" fill-opacity="1.00" stroke="None">
<path d="
M 57.00 425.00 
C 81.80 473.52 113.60 509.79 161.30 539.70 C 209.01 569.60 280.65 586.29 338.33 578.33 C 396.01 570.37 448.09 553.91 490.00 512.00
C 484.63 512.32 482.57 504.92 476.75 502.25 C 470.94 499.58 471.45 497.12 464.08 491.92 C 456.71 486.72 445.85 477.95 438.75 472.25 C 431.64 466.56 430.61 466.70 425.75 462.25 C 420.89 457.80 415.86 455.93 412.75 452.25 C 409.64 448.57 400.53 446.02 401.00 442.00
C 371.80 461.42 330.98 471.24 296.01 468.99 C 261.04 466.74 228.12 453.24 202.70 431.30 C 177.28 409.36 157.96 384.77 149.00 354.00
C 147.35 358.45 138.17 360.11 135.25 364.25 C 132.32 368.38 125.92 370.54 122.25 374.25 C 118.58 377.95 113.35 380.94 109.25 384.25 C 105.15 387.56 100.29 391.97 96.08 395.08 C 91.87 398.20 86.95 401.76 83.23 405.23 C 79.51 408.70 73.02 411.33 70.23 415.23 C 67.44 419.13 58.25 420.89 57.00 425.00 Z"/>
</g>
</svg>